<?xml version="1.0" encoding="UTF-8"?>
<svg version="1.1" xmlns="http://www.w3.org/2000/svg" width="1024" height="1024">
<path d="M0 0 C337.92 0 675.84 0 1024 0 C1024 337.92 1024 675.84 1024 1024 C686.08 1024 348.16 1024 0 1024 C0 686.08 0 348.16 0 0 Z " fill="#000000" transform="translate(0,0)"/>
<path d="M0 0 C-0.60627728 3.43358186 -1.47940178 6.51028159 -2.77490234 9.74487305 C-3.14016525 10.6624942 -3.50542816 11.58011536 -3.88175964 12.52554321 C-4.27913834 13.51098114 -4.67651703 14.49641907 -5.0859375 15.51171875 C-5.49850296 16.54485199 -5.91106842 17.57798523 -6.33613586 18.64242554 C-9.95550935 27.69096518 -13.62010421 36.72147883 -17.28529358 45.75154114 C-19.66730877 51.63621733 -21.98108125 57.53535397 -24.17578125 63.4921875 C-29.41871033 77.41361127 -35.8080959 86.29935275 -47.00585938 96.08251953 C-50.43165683 99.37662007 -53.21129634 103.16416115 -56 107 C-57 105 -57 105 -55.97119141 101.89331055 C-55.43943255 100.55452717 -54.89885263 99.21922838 -54.3515625 97.88671875 C-54.06337646 97.16851959 -53.77519043 96.45032043 -53.47827148 95.71035767 C-52.5349636 93.36617706 -51.58030253 91.0268153 -50.625 88.6875 C-49.979231 87.09091034 -49.3338864 85.49414896 -48.68896484 83.8972168 C-43.95075258 72.19663758 -39.07468068 60.55899487 -34 49 C-32.35 49 -30.7 49 -29 49 C-29 48.34 -29 47.68 -29 47 C-30.98 47 -32.96 47 -35 47 C-35.12375 47.52464844 -35.2475 48.04929687 -35.375 48.58984375 C-37.10991513 55.1066187 -39.76142662 60.9463969 -42.67602539 66.99291992 C-45.40998289 72.68646173 -47.96498174 78.43836876 -50.4375 84.25 C-50.99836304 85.56689819 -50.99836304 85.56689819 -51.57055664 86.91040039 C-52.71610996 89.60592095 -53.85861512 92.30271194 -55 95 C-60.99063409 109.15689488 -66.9995389 123.29705555 -74.03125 136.9765625 C-77.9236731 144.55497109 -81.33936417 152.13192702 -84.34033203 160.10864258 C-87.53746933 168.56372254 -91.25705609 176.77524533 -95 185 C-96.32 185 -97.64 185 -99 185 C-97.56389506 181.54108584 -96.12598594 178.0829246 -94.6875 174.625 C-94.02439819 173.03026855 -94.02439819 173.03026855 -93.34790039 171.40332031 C-90.89411168 165.51216575 -88.42257246 159.62922193 -85.921875 153.7578125 C-85.42341064 152.58653809 -84.92494629 151.41526367 -84.41137695 150.20849609 C-83.44109372 147.93169763 -82.46833857 145.65595076 -81.49291992 143.38134766 C-81.05052979 142.34284668 -80.60813965 141.3043457 -80.15234375 140.234375 C-79.5644104 138.86104004 -79.5644104 138.86104004 -78.96459961 137.45996094 C-78.12161595 135.31014993 -77.49202652 133.25208131 -77 131 C-77.66 131 -78.32 131 -79 131 C-79.38671875 132.22589844 -79.7734375 133.45179688 -80.171875 134.71484375 C-82.20318608 140.80283053 -84.72308333 146.66679261 -87.25 152.5625 C-87.73726563 153.70259521 -88.22453125 154.84269043 -88.7265625 156.01733398 C-89.69974463 158.29211503 -90.67432119 160.5663001 -91.65039062 162.83984375 C-92.8404586 165.6264284 -94.01118902 168.41983866 -95.171875 171.21875 C-95.78100801 172.66676849 -96.39036177 174.11469415 -97 175.5625 C-97.26586914 176.21613525 -97.53173828 176.86977051 -97.80566406 177.54321289 C-98.5625 179.31640625 -98.5625 179.31640625 -100 182 C-100.99 182.33 -101.98 182.66 -103 183 C-102.35057577 178.86454725 -100.99296423 175.41595212 -99.27734375 171.60546875 C-98.73916016 170.40341797 -98.20097656 169.20136719 -97.64648438 167.96289062 C-97.07693432 166.70437666 -96.50727145 165.44591375 -95.9375 164.1875 C-95.36346104 162.90971681 -94.78988839 161.63172403 -94.21679688 160.35351562 C-92.8157713 157.23358473 -91.41002202 154.11587282 -90 151 C-95.18621144 161.25118676 -100.20085516 171.56185998 -105 182 C-108.94335176 182.13656629 -111.99598573 181.89156559 -115.6875 180.5 C-118.43100552 179.47651607 -120.02348058 179 -123 179 C-121.43880578 179.79423861 -119.87598036 180.58527123 -118.3125 181.375 C-117.00732422 182.03628906 -117.00732422 182.03628906 -115.67578125 182.7109375 C-113.15227201 183.92664268 -110.61262468 184.99260958 -108 186 C-108.65845938 191.12534653 -110.15842207 195.65036144 -111.921875 200.47265625 C-112.36591423 201.70665916 -112.36591423 201.70665916 -112.81892395 202.96559143 C-113.45765917 204.73910566 -114.09867216 206.51180088 -114.74172974 208.28375244 C-116.11538032 212.06947176 -117.47760008 215.85927067 -118.84034729 219.64892578 C-119.54068985 221.59638364 -120.24157097 223.5436479 -120.94297791 225.49072266 C-124.19401985 234.51995721 -127.3885417 243.56842841 -130.5625 252.625 C-131.09203787 254.13460397 -131.6215789 255.64420683 -132.15112305 257.15380859 C-133.769217 261.76857555 -135.38495113 266.38416658 -137 271 C-137.28294922 271.80866516 -137.56589844 272.61733032 -137.85742188 273.45050049 C-139.03518787 276.81673422 -140.21287467 280.18299561 -141.39030457 283.54934692 C-142.86381441 287.76207669 -144.33797122 291.97457766 -145.8137207 296.18652344 C-146.10087448 297.00613556 -146.38802826 297.82574768 -146.68388367 298.67019653 C-147.2605944 300.31626802 -147.83734594 301.96232521 -148.41413879 303.60836792 C-150.15651264 308.58327333 -151.89141382 313.56071663 -153.62107849 318.54005432 C-154.73049624 321.73081469 -155.84447777 324.91996931 -156.95944214 328.10879517 C-157.48245291 329.60805233 -158.0034212 331.10802371 -158.52224731 332.60873413 C-159.23354749 334.66550816 -159.9518462 336.71970599 -160.671875 338.7734375 C-161.0750293 339.93278809 -161.47818359 341.09213867 -161.89355469 342.28662109 C-163 345 -163 345 -165 347 C-174.76020154 332.61849091 -180.12592687 315.56484831 -185.30761719 299.12255859 C-185.87613252 297.37972632 -186.52506117 295.66332466 -187.1953125 293.95703125 C-189.74127349 284.60124256 -186.63468917 277.24159632 -183.125 268.5 C-182.62582616 267.22993454 -182.1277949 265.95941947 -181.63085938 264.68847656 C-180.60899716 262.08251878 -179.57789567 259.4804863 -178.54003906 256.88085938 C-177.043717 253.12535673 -175.59376519 249.35355121 -174.1484375 245.578125 C-173.26659618 243.30170688 -172.38382749 241.02564772 -171.5 238.75 C-171.09152832 237.67943359 -170.68305664 236.60886719 -170.26220703 235.50585938 C-169.87661621 234.52939453 -169.49102539 233.55292969 -169.09375 232.546875 C-168.59391602 231.26055176 -168.59391602 231.26055176 -168.08398438 229.94824219 C-167 228 -167 228 -164 227 C-161.58984375 227.77734375 -161.58984375 227.77734375 -158.9375 228.9375 C-155.58075678 230.49959077 -155.58075678 230.49959077 -152 231 C-156.29 229.02 -160.58 227.04 -165 225 C-162.60057681 216.01356714 -159.07463447 207.5853313 -155.47485352 199.02954102 C-154.43071586 196.54636591 -153.39550046 194.05960522 -152.36132812 191.57226562 C-151.69843573 189.98676205 -151.03504238 188.40146781 -150.37109375 186.81640625 C-150.06272079 186.0758046 -149.75434784 185.33520294 -149.43663025 184.57215881 C-148.14253432 181.50598575 -146.85206727 178.7781009 -145 176 C-141.37 176.33 -137.74 176.66 -134 177 C-136.97 175.02 -139.94 173.04 -143 171 C-142.46329734 164.53273294 -140.27303978 159.13077911 -137.75 153.1875 C-137.30962402 152.13925049 -136.86924805 151.09100098 -136.41552734 150.01098633 C-132.62060695 141.13576928 -128.35222634 132.53890176 -123.97094727 123.94189453 C-116.01824071 108.26073163 -109.06255036 92.10368936 -102.30322266 75.87719727 C-99.97400743 70.28839532 -97.59989323 64.71970949 -95.2109375 59.15625 C-94.87212051 58.36710205 -94.53330353 57.5779541 -94.18421936 56.76489258 C-92.79986817 53.54168918 -91.41494701 50.31873417 -90.02792358 47.09667969 C-89.05017839 44.82529379 -88.07383885 42.55330779 -87.09765625 40.28125 C-86.65134354 39.24659607 -86.65134354 39.24659607 -86.1960144 38.19104004 C-85.03223868 35.48029882 -83.93343018 32.80029055 -83 30 C-80.68860974 28.47412128 -78.42850405 27.12648554 -76 25.8125 C-75.28013916 25.41812744 -74.56027832 25.02375488 -73.81860352 24.61743164 C-62.17375689 18.31469785 -50.43395247 12.97272003 -37.9375 8.5625 C-36.97384521 8.22017334 -36.01019043 7.87784668 -35.01733398 7.52514648 C-29.64027206 5.68563763 -24.66640959 4.47386935 -19 4 C-19.59024272 9.23020637 -21.32019612 13.4064687 -23.5 18.125 C-24.13831567 19.52211663 -24.77382861 20.92051788 -25.40625 22.3203125 C-25.68791016 22.93148926 -25.96957031 23.54266602 -26.25976562 24.17236328 C-27.03826686 26.09448077 -27.52916173 27.98256204 -28 30 C-28.96266241 33.01268443 -29.9866628 36.00404654 -31 39 C-28.62821336 33.81555344 -26.43172492 28.60453666 -24.37890625 23.28515625 C-23.91806641 22.10501953 -23.45722656 20.92488281 -22.98242188 19.70898438 C-22.02706332 17.25553949 -21.08456043 14.7970539 -20.15429688 12.33398438 C-19.46110352 10.57731445 -19.46110352 10.57731445 -18.75390625 8.78515625 C-18.34470947 7.72176025 -17.9355127 6.65836426 -17.51391602 5.56274414 C-15.68172288 2.4612232 -14.41654403 1.93325226 -11 1 C-7.27783956 0.04559989 -3.83609128 -0.08921143 0 0 Z " fill="#F5F6F5" transform="translate(487,272)"/>
<path d="M0 0 C3.64126997 1.57024463 6.22451169 3.82555685 9.1875 6.4375 C14.89542833 11.37302309 21.03821254 15.40878581 27.4753418 19.33178711 C28.52975464 19.98546265 28.52975464 19.98546265 29.60546875 20.65234375 C30.55135864 21.22456665 30.55135864 21.22456665 31.51635742 21.80834961 C33 23 33 23 34 26 C33.31369719 28.54540157 32.56414835 30.95960235 31.6875 33.4375 C31.46126953 34.10587891 31.23503906 34.77425781 31.00195312 35.46289062 C29.86781729 38.76070924 28.66984776 41.9346926 27 45 C27.66 45 28.32 45 29 45 C29.18175781 44.36191406 29.36351562 43.72382812 29.55078125 43.06640625 C29.92783203 41.82697266 29.92783203 41.82697266 30.3125 40.5625 C30.55613281 39.73878906 30.79976563 38.91507813 31.05078125 38.06640625 C31.36402344 37.38449219 31.67726563 36.70257812 32 36 C35 35 35 35 36.79345703 35.60498047 C37.44169434 35.93900879 38.08993164 36.27303711 38.7578125 36.6171875 C39.46550781 36.97683594 40.17320312 37.33648438 40.90234375 37.70703125 C41.63582031 38.09246094 42.36929688 38.47789062 43.125 38.875 C43.86621094 39.25269531 44.60742188 39.63039063 45.37109375 40.01953125 C50.81731673 42.81731673 50.81731673 42.81731673 52 44 C51.60531609 50.714591 50.09676176 56.33906864 47.7265625 62.6015625 C47.23994644 63.9226149 47.23994644 63.9226149 46.74349976 65.27035522 C45.71347864 68.05885849 44.66929761 70.84181646 43.625 73.625 C42.93139816 75.49966966 42.23868187 77.3746672 41.546875 79.25 C38.83717396 86.565925 36.13366222 93.85324001 33 101 C27.0053762 100.57181259 21.37634595 99.4612758 15.5625 98 C14.85222656 97.82178711 14.14195312 97.64357422 13.41015625 97.45996094 C8.28175278 96.14087639 8.28175278 96.14087639 6 95 C6 93.35 6 91.7 6 90 C5.34 91.32 4.68 92.64 4 94 C-2.95971929 93.51351463 -8.83119131 90.79759239 -15.1875 88.0625 C-16.26708984 87.60681641 -17.34667969 87.15113281 -18.45898438 86.68164062 C-22.69673104 84.88500439 -26.89078314 83.07468737 -31 81 C-29.08069532 74.29637297 -26.88397958 67.77341285 -24.36328125 61.2734375 C-24.01783768 60.37491058 -23.6723941 59.47638367 -23.31648254 58.55062866 C-19.69527383 49.15649105 -16.00645706 39.78873 -12.2980957 30.42871094 C-11.16895229 27.57817611 -10.04236489 24.72663991 -8.91601562 21.875 C-8.18764804 20.0337956 -7.45913791 18.19264758 -6.73046875 16.3515625 C-6.39919479 15.51299713 -6.06792084 14.67443176 -5.72660828 13.81045532 C-3.88808774 9.17425785 -1.98762279 4.57432864 0 0 Z " fill="#F7F7F7" transform="translate(452,633)"/>
<path d="M0 0 C0.76101013 -0.00456207 1.52202026 -0.00912415 2.30609131 -0.01382446 C14.11492496 -0.03890773 25.58606503 0.85779124 37.25 2.6875 C37.93946716 2.79419006 38.62893433 2.90088013 39.33929443 3.01080322 C46.86818119 4.20092954 53.97938486 5.70907575 61.125 8.375 C59.09646881 15.83389579 56.41328529 22.9571933 53.55053711 30.12841797 C53.25284424 30.87752441 52.95515137 31.62663086 52.6484375 32.3984375 C52.37950684 33.06794434 52.11057617 33.73745117 51.83349609 34.42724609 C51.11946949 36.39020413 50.59505351 38.34112551 50.125 40.375 C49.55394531 40.40940186 48.98289062 40.44380371 48.39453125 40.47924805 C33.76321965 41.41696625 19.79035482 43.61270109 5.49951172 46.85595703 C2.72215126 47.46305844 -0.06373067 47.95307256 -2.875 48.375 C-2.875 47.055 -2.875 45.735 -2.875 44.375 C-3.34679687 45.74011719 -3.34679687 45.74011719 -3.828125 47.1328125 C-6.65933381 51.61736081 -9.77712903 52.47941128 -14.625 54.25 C-16.35371209 54.93076439 -18.08026106 55.61704541 -19.8046875 56.30859375 C-20.66288086 56.65132324 -21.52107422 56.99405273 -22.40527344 57.34716797 C-32.39583361 61.50496337 -41.4208759 67.17667643 -50.16796875 73.4921875 C-52.38029416 75.03091888 -54.46209045 76.21214427 -56.875 77.375 C-56.64014893 76.79049072 -56.40529785 76.20598145 -56.16333008 75.60375977 C-51.0607861 62.89569851 -45.98990414 50.17533183 -40.96347046 37.4369812 C-40.41414977 36.04513552 -39.86438196 34.65346621 -39.31411743 33.26199341 C-38.78601462 31.9261634 -38.25867973 30.59002954 -37.73213196 29.25358582 C-37.21625824 27.94487948 -36.6984511 26.6369335 -36.17863464 25.32978821 C-34.81431815 21.87420971 -33.52739396 18.40698917 -32.32617188 14.89111328 C-32.06954773 14.15711807 -31.81292358 13.42312286 -31.54852295 12.66688538 C-31.05949768 11.25964221 -30.5856784 9.8469913 -30.12969971 8.42869568 C-29.07859356 5.43491927 -28.37683034 3.6841419 -25.62988281 1.99194336 C-17.14567113 0.0919431 -8.64824064 0.04984677 0 0 Z " fill="#F6F7F6" transform="translate(519.875,268.625)"/>
<path d="M0 0 C2.64 0.99 5.28 1.98 8 3 C7.3225485 7.2052468 5.95685863 10.86739692 4.34765625 14.8046875 C4.08746201 15.4468924 3.82726776 16.08909729 3.55918884 16.75076294 C2.73110193 18.79388893 1.89740696 20.83465239 1.0625 22.875 C0.23143772 24.90831144 -0.59821767 26.94213966 -1.42347717 28.97781372 C-2.17452316 30.8302384 -2.93074392 32.68056255 -3.68725586 34.53076172 C-5.00010234 38.00027046 -6.03369622 41.42213387 -7 45 C-0.70904101 31.79542738 5.14447631 18.40200682 11 5 C12.43793392 5.31049726 13.8753318 5.6234776 15.3125 5.9375 C16.11300781 6.11152344 16.91351563 6.28554688 17.73828125 6.46484375 C22.37258785 7.56138953 23.88250686 8.80608399 26.75 12.5625 C29.37748247 15.97968964 32.07047009 19.15004115 35.0625 22.25 C38 25.55385488 38 25.55385488 38 29.25 C37.505 30.61125 37.505 30.61125 37 32 C35.99889934 35.43920323 35.99889934 35.43920323 37 39 C36.36669922 41.26147461 36.36669922 41.26147461 35.3046875 43.90234375 C34.91796875 44.87623047 34.53125 45.85011719 34.1328125 46.85351562 C33.71773438 47.87123047 33.30265625 48.88894531 32.875 49.9375 C32.483125 50.92041016 32.09125 51.90332031 31.6875 52.91601562 C30.09969223 56.8829406 28.4944128 60.84034195 26.81860352 64.77099609 C22.90202607 73.96477238 19.55117785 83.34400476 16.1875 92.75 C15.58426235 94.42978735 14.98074862 96.10947558 14.37695312 97.7890625 C12.91478901 101.85824132 11.45634812 105.92873622 10 110 C5.47091216 109.2277992 2.11013231 107.54517284 -1.75 105.125 C-2.33910156 104.77308594 -2.92820312 104.42117188 -3.53515625 104.05859375 C-7.87505279 101.37484164 -7.87505279 101.37484164 -9 98 C-10.32 98 -11.64 98 -13 98 C-15.734375 96.4609375 -15.734375 96.4609375 -18.75 94.375 C-19.801875 93.65054688 -20.85375 92.92609375 -21.9375 92.1796875 C-25.67674366 89.51833806 -29.3748 86.81486117 -33 84 C-32.24661943 78.95299407 -30.37362766 74.3612889 -28.5703125 69.6171875 C-28.22383667 68.6974968 -27.87736084 67.77780609 -27.52038574 66.83024597 C-26.39314068 63.84342004 -25.25954886 60.85905855 -24.125 57.875 C-23.74172546 56.86355927 -23.35845093 55.85211853 -22.96356201 54.81002808 C-3.52217154 3.52217154 -3.52217154 3.52217154 0 0 Z " fill="#F6F7F7" transform="translate(410,602)"/>
<path d="M0 0 C2.0625 0.4375 2.0625 0.4375 4 1 C4.02505615 1.93682617 4.0501123 2.87365234 4.07592773 3.83886719 C4.17205374 7.37264211 4.27121386 10.9063066 4.37231445 14.43994141 C4.41516431 15.95846317 4.45686501 17.47701787 4.49731445 18.99560547 C4.53671501 20.46947817 4.57780918 21.94330662 4.62063599 23.41708374 C4.66284044 24.88671132 4.70061414 26.35647239 4.73410034 27.82632446 C4.84829238 31.93024893 5.29956226 35.76908574 6.00390625 39.8203125 C6.83498827 49.02904729 1.96697603 57.82353524 -1.5 66.125 C-2.21846744 67.89228712 -2.93462901 69.66051349 -3.6484375 71.4296875 C-4.7086735 74.05461489 -5.77362242 76.67690168 -6.85717773 79.29229736 C-8.63388843 83.58154975 -10.34211951 87.87762937 -11.91796875 92.24511719 C-12.22246948 93.07631073 -12.52697021 93.90750427 -12.84069824 94.7638855 C-13.41080705 96.33243767 -13.96616999 97.90645727 -14.50402832 99.48635864 C-15.76199365 102.91773589 -16.43631886 104.68977188 -19.70507812 106.48876953 C-20.46240234 106.65747559 -21.21972656 106.82618164 -22 107 C-21.01 107.99 -21.01 107.99 -20 109 C-20.37290519 113.23776362 -21.58370887 116.92755815 -23.1171875 120.875 C-23.55434082 122.01155029 -23.99149414 123.14810059 -24.44189453 124.3190918 C-24.91481934 125.5337915 -25.38774414 126.74849121 -25.875 128 C-26.87297994 130.58862276 -27.86641333 133.17897999 -28.859375 135.76953125 C-29.11554596 136.43660599 -29.37171692 137.10368073 -29.63565063 137.79096985 C-33.04743527 146.69773374 -36.29754881 155.66400827 -39.55810547 164.62695312 C-39.99525879 165.82642578 -40.43241211 167.02589844 -40.8828125 168.26171875 C-41.26840332 169.32350342 -41.65399414 170.38528809 -42.05126953 171.47924805 C-43 174 -43 174 -44 176 C-44.66 176 -45.32 176 -46 176 C-48.94662542 172.63242809 -50.04657034 170.88182618 -49.80737305 166.35253906 C-49.07628424 161.64232214 -47.55261912 157.3133392 -45.89453125 152.859375 C-45.57840881 151.99073318 -45.26228638 151.12209137 -44.93658447 150.22712708 C-43.90388734 147.39815738 -42.85855342 144.57405532 -41.8125 141.75 C-41.09329518 139.78911805 -40.37446775 137.82809764 -39.65600586 135.86694336 C-34.37733641 121.50782504 -28.9038117 107.22633804 -23.25512695 93.00878906 C-22.97433289 92.29824875 -22.69353882 91.58770844 -22.40423584 90.8556366 C-21.65460435 88.96038497 -20.89989733 87.06714304 -20.14477539 85.17407227 C-19.15511748 82.43008793 -18.46755863 79.87195266 -18 77 C-18.36351562 78.06476563 -18.72703125 79.12953125 -19.1015625 80.2265625 C-22.36119996 89.67207803 -25.92232838 98.87584826 -30 108 C-30.99 108 -31.98 108 -33 108 C-32.7827124 108.83684326 -32.5654248 109.67368652 -32.34155273 110.53588867 C-31.92927458 114.7173145 -32.9790067 117.63505665 -34.53515625 121.42578125 C-34.81088974 122.13163864 -35.08662323 122.83749603 -35.37071228 123.56474304 C-36.2544967 125.81959138 -37.15758598 128.06605881 -38.0625 130.3125 C-39.2250969 133.24411108 -40.38003422 136.17871843 -41.53515625 139.11328125 C-41.96461044 140.1976799 -41.96461044 140.1976799 -42.40274048 141.3039856 C-45.48336953 149.12691241 -48.2579468 157.05324542 -51 165 C-51.99 165 -52.98 165 -54 165 C-55.59624991 162.97768338 -56.91922498 161.06127324 -58.25 158.875 C-58.81460937 158.02035156 -58.81460937 158.02035156 -59.390625 157.1484375 C-61.1029289 154.37853413 -62.04219172 152.53582533 -61.78369141 149.25292969 C-60.87960541 145.50026867 -59.5316487 142.05545101 -58.0078125 138.5234375 C-57.70618195 137.80897461 -57.40455139 137.09451172 -57.09378052 136.35839844 C-56.44624503 134.82559396 -55.79596368 133.29394708 -55.14318848 131.7633667 C-53.41195379 127.7024061 -51.70198304 123.63252396 -49.9921875 119.5625 C-49.47700562 118.33749283 -49.47700562 118.33749283 -48.95141602 117.08773804 C-45.93527819 109.89381011 -43.0675421 102.64918268 -40.25 95.375 C-36.36214987 85.35810223 -32.27465836 75.4458421 -28.04931641 65.56689453 C-24.96406037 58.33579141 -22.0102649 51.062956 -19.125 43.75 C-15.23794868 33.92201629 -11.13735689 24.19731038 -6.9375 14.5 C-6.64756165 13.82868042 -6.35762329 13.15736084 -6.05889893 12.46569824 C-5.23891436 10.56954596 -4.41522287 8.67505938 -3.58984375 6.78125 C-3.11409912 5.68876953 -2.63835449 4.59628906 -2.14819336 3.47070312 C-1 1 -1 1 0 0 Z " fill="#F3F3F3" transform="translate(389,476)"/>
<path d="M0 0 C0.66 0 1.32 0 2 0 C-0.42444254 7.69246852 -3.44098234 15.06668527 -6.5625 22.5 C-7.65334331 25.11102283 -8.74129284 27.72324274 -9.828125 30.3359375 C-10.2360302 31.31601273 -10.2360302 31.31601273 -10.6521759 32.31588745 C-13.10596161 38.22601444 -15.46377554 44.1724283 -17.8125 50.125 C-23.32090065 64.02198864 -29.25461343 77.73449724 -35.17910767 91.45765686 C-37.31573831 96.40757389 -39.44129618 101.36209678 -41.55859375 106.3203125 C-41.83721252 106.97241196 -42.1158313 107.62451141 -42.40289307 108.29637146 C-43.70948136 111.35448766 -45.01526176 114.41294249 -46.31982422 117.47192383 C-46.77760254 118.5420874 -47.23538086 119.61225098 -47.70703125 120.71484375 C-48.30221558 122.10884399 -48.30221558 122.10884399 -48.90942383 123.53100586 C-49.87831401 125.72451075 -50.90554471 127.86691943 -52 130 C-53.43836751 129.88541307 -54.87570966 129.75790884 -56.3125 129.625 C-57.11300781 129.55539062 -57.91351563 129.48578125 -58.73828125 129.4140625 C-61 129 -61 129 -64 127 C-66.32387947 126.60612212 -68.65793749 126.26513915 -71 126 C-68.79286665 119.04179715 -66.13517019 112.3897293 -63.25 105.6875 C-62.26477771 103.37666314 -61.28045395 101.06544305 -60.296875 98.75390625 C-60.03583984 98.14117859 -59.77480469 97.52845093 -59.50585938 96.89715576 C-56.46472185 89.75418349 -53.45875768 82.59660065 -50.46588135 75.43328857 C-49.49858625 73.12162138 -48.52646464 70.81202177 -47.55419922 68.50244141 C-44.56177166 61.36497135 -41.66044907 54.22212433 -39.0546875 46.93359375 C-34.11110543 33.18818801 -29.78530674 22.91017664 -18 14 C-16.47573747 12.7966172 -14.95234607 11.59213042 -13.4296875 10.38671875 C-9.8203283 7.5618236 -6.16690935 4.80666523 -2.46777344 2.10058594 C-1.02762932 1.07480491 -1.02762932 1.07480491 0 0 Z " fill="#F2F3F3" transform="translate(391,310)"/>
<path d="M0 0 C6.29396343 0.50671739 12.55179039 1.18115236 18.8125 2 C26.19601957 2.96014098 33.56570957 3.55858901 41 4 C38.10769757 13.95755357 34.66559192 23.68903266 31.1574707 33.44335938 C30.42314326 35.4932545 29.69501903 37.54538166 28.97290039 39.59960938 C27.92418847 42.58198019 26.8568975 45.5570896 25.78515625 48.53125 C25.46523209 49.45200317 25.14530792 50.37275635 24.81568909 51.32141113 C24.50534225 52.16989624 24.19499542 53.01838135 23.87524414 53.89257812 C23.60893692 54.63963013 23.3426297 55.38668213 23.06825256 56.15637207 C21.71700168 58.48840848 20.4884365 59.05463906 18 60 C9.5078596 61.54934059 0.59619345 61.10440721 -8 61 C-7.29807915 56.06678166 -5.36469225 51.74025318 -3.4375 47.1875 C-3.10814453 46.39923828 -2.77878906 45.61097656 -2.43945312 44.79882812 C-1.63041094 42.86416204 -0.81576148 40.93184247 0 39 C-2.02423703 41.56900337 -3.58440774 44.02668138 -4.9375 47 C-6.1957641 49.6229967 -7.06380524 51.06198223 -9.1875 53.125 C-11.57964245 55.59963012 -11.69458207 57.64040275 -12 61 C-15.63 61 -19.26 61 -23 61 C-22.3762803 54.98230675 -20.08883146 49.72231555 -17.8515625 44.16015625 C-17.43836761 43.11983749 -17.02517273 42.07951874 -16.59945679 41.00767517 C-15.28019697 37.69037122 -13.95260967 34.37646983 -12.625 31.0625 C-11.73905806 28.83679755 -10.85363577 26.61088819 -9.96875 24.38476562 C-3.06295298 7.04161527 -3.06295298 7.04161527 0 0 Z " fill="#F6F6F6" transform="translate(533,676)"/>
<path d="M0 0 C5.40838882 0.58679251 10.10826774 1.89049944 15.1875 3.8125 C15.88552734 4.06064453 16.58355469 4.30878906 17.30273438 4.56445312 C17.98013672 4.81775391 18.65753906 5.07105469 19.35546875 5.33203125 C19.96028076 5.55608643 20.56509277 5.7801416 21.18823242 6.01098633 C23.5540309 7.30243622 25.16920901 9.04159085 27 11 C19.37465991 34.6227579 10.96270964 57.94558006 2.44967651 81.26077271 C2.14135895 82.10566254 1.83304138 82.95055237 1.51538086 83.82104492 C1.24576035 84.55884689 0.97613983 85.29664886 0.698349 86.05680847 C0.10910475 87.69641048 -0.44904596 89.34713788 -1 91 C-4.29782822 89.55975969 -6.47430635 87.77162561 -9.00390625 85.2265625 C-9.74447266 84.4840625 -10.48503906 83.7415625 -11.24804688 82.9765625 C-12.01181641 82.20054687 -12.77558594 81.42453125 -13.5625 80.625 C-14.33013672 79.85671875 -15.09777344 79.0884375 -15.88867188 78.296875 C-22.75285628 71.37883038 -22.75285628 71.37883038 -25 68 C-24.5133698 59.15955136 -19.26752506 49.28655722 -16.14208984 41.02148438 C-15.0771828 38.2041929 -14.01810078 35.38476104 -12.96047974 32.56472778 C-11.9894035 29.97755747 -11.01527284 27.39154495 -10.0402832 24.80584717 C-9.32847131 22.91737272 -8.61831808 21.02827335 -7.90820312 19.13916016 C-5.45568524 12.66292497 -2.88972357 6.29377734 0 0 Z " fill="#F6F7F7" transform="translate(371,587)"/>
<path d="M0 0 C1.97940647 5.9382194 -2.38548268 13.54740768 -4.50927734 19.28466797 C-5.16182532 21.07314469 -5.79425566 22.86911022 -6.40478516 24.67236328 C-11.08360652 38.47934841 -16.42364413 45.66642124 -29 53 C-30.72523262 54.12565354 -32.44939059 55.25295811 -34.171875 56.3828125 C-35.69173298 57.30712042 -37.21777065 58.22134817 -38.75 59.125 C-39.57999512 59.61798584 -40.40999023 60.11097168 -41.26513672 60.61889648 C-47.09689891 64.0236019 -53.03483723 67.14637532 -59.125 70.0625 C-59.86975586 70.42037598 -60.61451172 70.77825195 -61.38183594 71.14697266 C-66.77843843 73.64539973 -72.27185657 75.41845975 -78 77 C-77.40798509 73.723317 -76.62320808 70.71693082 -75.43359375 67.60864258 C-74.95805054 66.35758476 -74.95805054 66.35758476 -74.47290039 65.08125305 C-74.13121826 64.19463486 -73.78953613 63.30801666 -73.4375 62.39453125 C-73.0861499 61.47411545 -72.7347998 60.55369965 -72.37280273 59.60539246 C-71.63155937 57.66566779 -70.88843514 55.72666096 -70.14355469 53.78833008 C-69.00063381 50.81414933 -67.86308922 47.83795742 -66.7265625 44.86132812 C-66.00551852 42.97644381 -65.28417471 41.09167416 -64.5625 39.20703125 C-64.22081787 38.31434036 -63.87913574 37.42164948 -63.52709961 36.50190735 C-63.2100708 35.67732529 -62.89304199 34.85274323 -62.56640625 34.00317383 C-62.14790405 32.91326897 -62.14790405 32.91326897 -61.72094727 31.80134583 C-61 30 -61 30 -60 28 C-57.71255523 27.213119 -55.45109519 26.52729707 -53.125 25.875 C-34.24039031 20.25404389 -15.78021843 11.88157623 0 0 Z " fill="#F4F5F5" transform="translate(678,646)"/>
<path d="M0 0 C0.78375 0.28875 1.5675 0.5775 2.375 0.875 C6.8622758 2.26760284 11.385279 3.14271981 16 4 C17.47439354 7.84536999 16.4743748 10.11769395 14.97265625 13.84765625 C14.28465942 15.57918945 14.28465942 15.57918945 13.58276367 17.34570312 C13.07674138 18.58493468 12.56997202 19.82386141 12.0625 21.0625 C11.55190675 22.32593623 11.04190011 23.58960968 10.5324707 24.85351562 C9.5106982 27.38298778 8.48167334 29.90935303 7.44824219 32.43408203 C6.16659542 35.5898023 4.92227926 38.75633203 3.6953125 41.93359375 C3.02696209 43.62276031 2.35776115 45.31159071 1.6875 47 C1.25546265 48.14480835 1.25546265 48.14480835 0.81469727 49.31274414 C-1.19856544 54.25531827 -3.28542373 56.23122314 -8 59 C-10.32530944 62.75569282 -10.32530944 62.75569282 -11 67 C-10.66226562 66.4225 -10.32453125 65.845 -9.9765625 65.25 C-9.53054688 64.5075 -9.08453125 63.765 -8.625 63 C-8.18414062 62.2575 -7.74328125 61.515 -7.2890625 60.75 C-6.86367188 60.1725 -6.43828125 59.595 -6 59 C-5.34 59 -4.68 59 -4 59 C-4.59601069 62.3433046 -5.41838204 65.36171489 -6.67407227 68.51489258 C-7.01434952 69.37540726 -7.35462677 70.23592194 -7.70521545 71.12251282 C-8.07190842 72.0372789 -8.43860138 72.95204498 -8.81640625 73.89453125 C-9.19232407 74.84188644 -9.56824188 75.78924164 -9.95555115 76.76530457 C-11.15390288 79.78263055 -12.35811655 82.79757723 -13.5625 85.8125 C-14.37734106 87.86117387 -15.19179867 89.9100003 -16.00585938 91.95898438 C-17.99946472 96.97443319 -19.99788452 101.98794272 -22 107 C-26.0208158 99.31425597 -26.34251109 89.91354486 -26.8046875 81.36328125 C-26.95405991 78.01742951 -26.95405991 78.01742951 -27.4453125 74.79296875 C-28.5749931 62.12026977 -22.80041001 51.38805791 -17.78564453 40.06152344 C-15.79822506 35.56352575 -13.88111528 31.0364771 -11.96484375 26.5078125 C-9.31904511 20.26838562 -6.66969262 14.03058638 -3.9921875 7.8046875 C-3.70411728 7.12995392 -3.41604706 6.45522034 -3.11924744 5.76004028 C-1.11556056 1.11556056 -1.11556056 1.11556056 0 0 Z " fill="#EFEFEF" transform="translate(319,439)"/>
<path d="M0 0 C14.00651309 1.89061298 27.56563721 9.20319756 40.125 15.3125 C40.80594727 15.63758545 41.48689453 15.9626709 42.18847656 16.29760742 C43.83385647 17.12008391 45.42357394 18.05204246 47 19 C48 22 48 22 47 25 C47.99 23.68 48.98 22.36 50 21 C51.65 21.99 53.3 22.98 55 24 C53.83348574 29.92863717 52.24480642 35.38798394 50 41 C47.69 40.67 45.38 40.34 43 40 C42.67 39.01 42.34 38.02 42 37 C41.67 37.33 41.34 37.66 41 38 C36.42741329 37.65489912 32.2323414 36.82810869 27.8125 35.625 C14.88875931 32.27500877 1.30365519 30.86442615 -12 30 C-9.88685027 23.38808163 -7.46722928 16.93784416 -4.875 10.5 C-4.51535156 9.59507812 -4.15570312 8.69015625 -3.78515625 7.7578125 C-3.26888672 6.47003906 -3.26888672 6.47003906 -2.7421875 5.15625 C-2.27594971 3.99319336 -2.27594971 3.99319336 -1.80029297 2.80664062 C-1 1 -1 1 0 0 Z " fill="#F5F6F6" transform="translate(587,279)"/>
<path d="M0 0 C-2.943613 8.91929732 -6.04083404 17.7770616 -9.25048828 26.60400391 C-9.91944287 28.45858002 -10.57856428 30.31673117 -11.22802734 32.17822266 C-12.17443823 34.88612832 -13.15379023 37.58004235 -14.140625 40.2734375 C-14.42319153 41.10467133 -14.70575806 41.93590515 -14.99688721 42.79232788 C-16.60428228 47.0673872 -17.34012414 48.62550491 -21.44750977 50.95654297 C-22.61983154 51.30088379 -23.79215332 51.64522461 -25 52 C-25.81686279 52.2690918 -26.63372559 52.53818359 -27.4753418 52.81542969 C-29.87691412 53.47033205 -32.27986845 54.11769272 -34.6875 54.75 C-35.94916992 55.09998047 -35.94916992 55.09998047 -37.23632812 55.45703125 C-38.04908203 55.67230469 -38.86183594 55.88757813 -39.69921875 56.109375 C-40.42971436 56.30499023 -41.16020996 56.50060547 -41.9128418 56.70214844 C-44.229772 57.03279002 -45.78790806 56.71001569 -48 56 C-41.87983086 38.58222881 -35.69495626 21.20738043 -29 4 C-27.97261719 3.87882813 -26.94523438 3.75765625 -25.88671875 3.6328125 C-18.55626236 2.75173951 -11.28866205 1.79082487 -4.0390625 0.3671875 C-2 0 -2 0 0 0 Z " fill="#F5F6F6" transform="translate(616,675)"/>
<path d="M0 0 C0.66 0 1.32 0 2 0 C2.27972656 1.28390625 2.55945313 2.5678125 2.84765625 3.890625 C5.19471601 14.34136416 7.93370723 24.4114182 11.76391602 34.42480469 C15.17349653 43.53340403 13.55298875 49.01653481 10 57.875 C9.6184375 58.84953125 9.236875 59.8240625 8.84375 60.828125 C7.90479733 63.22245432 6.95669432 65.6127169 6 68 C0.49241201 67.01395217 -4.52844121 65.09101201 -9.75 63.125 C-11.20599609 62.59712891 -11.20599609 62.59712891 -12.69140625 62.05859375 C-14.07392578 61.53845703 -14.07392578 61.53845703 -15.484375 61.0078125 C-16.74846191 60.53819092 -16.74846191 60.53819092 -18.03808594 60.05908203 C-20 59 -20 59 -21 56 C-20.19897461 53.26708984 -20.19897461 53.26708984 -18.90234375 49.9609375 C-18.43320557 48.74833252 -17.96406738 47.53572754 -17.48071289 46.28637695 C-16.96633643 44.98257365 -16.4519316 43.67878154 -15.9375 42.375 C-14.91022715 39.7319494 -13.8890927 37.0865359 -12.8671875 34.44140625 C-12.61544266 33.79259995 -12.36369781 33.14379364 -12.10432434 32.47532654 C-10.15961729 27.45317626 -8.31985664 22.40279504 -6.5625 17.3125 C-4.53933727 11.47137585 -2.38285201 5.70482805 0 0 Z " fill="#F4F5F4" transform="translate(394,526)"/>
<path d="M0 0 C1.23290677 3.69872032 0.62549829 4.61613178 -0.80859375 8.1640625 C-1.22165771 9.19523193 -1.63472168 10.22640137 -2.06030273 11.28881836 C-2.51477783 12.3897583 -2.96925293 13.49069824 -3.4375 14.625 C-4.12984741 16.31991577 -4.12984741 16.31991577 -4.83618164 18.04907227 C-17.11463026 47.84938228 -33.31454587 73.92712825 -56 97 C-57.30324219 98.36125 -57.30324219 98.36125 -58.6328125 99.75 C-62.81039045 104.05502948 -66.99009193 107.69559255 -72 111 C-69.86423321 103.45676483 -67.28051901 96.14003937 -64.5 88.8125 C-64.10941406 87.77158203 -63.71882812 86.73066406 -63.31640625 85.65820312 C-62.22571072 82.7662074 -61.11620571 79.8822263 -60 77 C-59.73533936 76.2889209 -59.47067871 75.5778418 -59.19799805 74.84521484 C-57.68568162 70.98080641 -56.01211495 68.62764839 -52.8125 66 C-52.01199219 65.32582031 -51.21148438 64.65164063 -50.38671875 63.95703125 C-49.20529297 62.98830078 -49.20529297 62.98830078 -48 62 C-27.45396352 44.61489221 -12.15107702 23.92879693 0 0 Z " fill="#F2F2F2" transform="translate(740,573)"/>
<path d="M0 0 C5.92863717 1.16651426 11.38798394 2.75519358 17 5 C16.31302145 9.07515102 15.08054482 12.74373023 13.62890625 16.609375 C13.39076706 17.24566833 13.15262787 17.88196167 12.90727234 18.53753662 C12.12989744 20.60997144 11.3465017 22.6800639 10.5625 24.75 C10.02373591 26.18032833 9.48499917 27.61066696 8.94628906 29.04101562 C4.14043585 41.76501255 -0.87151748 54.40251944 -6 67 C-7.92185546 67.0135501 -9.84373854 67.02322063 -11.765625 67.03125 C-12.83586914 67.03705078 -13.90611328 67.04285156 -15.00878906 67.04882812 C-18.09347278 66.99847416 -20.98724235 66.6695017 -24 66 C-22.04668303 59.19774572 -19.82042796 52.55808626 -17.3125 45.94140625 C-16.96872314 45.03043686 -16.62494629 44.11946747 -16.27075195 43.18089294 C-15.54988918 41.27523984 -14.82713067 39.37030285 -14.10253906 37.46606445 C-12.99481608 34.54884801 -11.89962516 31.62711351 -10.8046875 28.70507812 C-10.09971958 26.84606531 -9.39401663 24.98733103 -8.6875 23.12890625 C-8.36241455 22.25706192 -8.0373291 21.38521759 -7.70239258 20.48695374 C-7.39197021 19.67858566 -7.08154785 18.87021759 -6.76171875 18.03735352 C-6.49319092 17.32805191 -6.22466309 16.61875031 -5.94799805 15.88795471 C-5 14 -5 14 -3.39379883 12.42735291 C-1.67237899 10.98951228 -1.67237899 10.98951228 -1.9375 8.125 C-1.958125 7.09375 -1.97875 6.0625 -2 5 C-1 2.125 -1 2.125 0 0 Z " fill="#EFF0F0" transform="translate(510,669)"/>
<path d="M0 0 C0.66 0 1.32 0 2 0 C0.58127091 4.42299745 -1.05913785 8.69650726 -2.84375 12.984375 C-3.1251886 13.66141983 -3.4066272 14.33846466 -3.69659424 15.036026 C-4.6285568 17.27507126 -5.56406464 19.51261274 -6.5 21.75 C-6.98321716 22.90802628 -6.98321716 22.90802628 -7.47619629 24.08944702 C-15.26719362 42.75623231 -23.24773865 61.34205555 -31.24511719 79.92114258 C-32.83397784 83.61243005 -34.41794238 87.30579194 -36 91 C-40.86896303 90.40380045 -45.32790951 89.43023178 -50 88 C-44.07579957 59.98346879 -26.35905826 33.25830467 -9 11 C-8.38946777 10.21689453 -8.38946777 10.21689453 -7.76660156 9.41796875 C-2.42097135 2.60011299 -2.42097135 2.60011299 0 0 Z " fill="#F2F3F3" transform="translate(353,343)"/>
<path d="M0 0 C2.64 0.66 5.28 1.32 8 2 C5.95210542 9.86057074 2.90156464 17.19433972 -0.38226318 24.60360718 C-1.56436689 27.27217492 -2.73249693 29.94678006 -3.9012146 32.62123108 C-4.47912322 33.94369168 -5.0575872 35.26590975 -5.6366272 36.58787537 C-7.75960456 41.43670974 -9.85323477 46.29558789 -11.875 51.1875 C-12.13804932 51.82115479 -12.40109863 52.45480957 -12.67211914 53.10766602 C-14.16796074 56.77278339 -15.53010132 60.46848676 -16.83203125 64.20703125 C-17.14221191 65.08786377 -17.45239258 65.96869629 -17.77197266 66.8762207 C-18.36891038 68.58696464 -18.95136425 70.3028524 -19.51708984 72.02416992 C-19.78344238 72.78963135 -20.04979492 73.55509277 -20.32421875 74.34375 C-20.6658606 75.36758789 -20.6658606 75.36758789 -21.0144043 76.41210938 C-21.33965088 76.93611328 -21.66489746 77.46011719 -22 78 C-22.64646484 78.12060791 -23.29292969 78.24121582 -23.95898438 78.36547852 C-24.63251953 78.57487061 -25.30605469 78.7842627 -26 79 C-27.38068879 81.56579065 -27.38068879 81.56579065 -28.33203125 84.80859375 C-28.73502441 86.02329346 -29.13801758 87.23799316 -29.55322266 88.48950195 C-29.97300154 89.805495 -30.39276029 91.12149446 -30.8125 92.4375 C-31.68444576 95.08825913 -32.56743197 97.73531368 -33.44921875 100.3828125 C-33.66562012 101.03798355 -33.88202148 101.6931546 -34.10498047 102.36817932 C-35.94565092 107.91795192 -37.96998485 113.37813865 -40.125 118.8125 C-40.41995361 119.55749756 -40.71490723 120.30249512 -41.01879883 121.07006836 C-41.67424128 122.71536268 -42.33619154 124.35806317 -43 126 C-44.09093749 122.72718753 -43.98054297 122.2067623 -42.91113281 119.11230469 C-42.64581253 118.33045303 -42.38049225 117.54860138 -42.10713196 116.74305725 C-41.80880966 115.89456711 -41.51048737 115.04607697 -41.203125 114.171875 C-40.89880051 113.28402817 -40.59447601 112.39618134 -40.28092957 111.48143005 C-39.27952806 108.56779504 -38.26503423 105.65891099 -37.25 102.75 C-36.55154306 100.72848617 -35.85371188 98.70675602 -35.15649414 96.68481445 C-33.11818655 90.78501041 -31.06223759 84.89147648 -29 79 C-28.729599 78.22678406 -28.459198 77.45356812 -28.18060303 76.65692139 C-25.54054775 69.11215554 -22.87005462 61.57851352 -20.17018127 54.05493164 C-18.53993002 49.51200393 -16.91923099 44.96574528 -15.3021698 40.41810608 C-14.03651407 36.86054061 -12.76761478 33.30413721 -11.49807739 29.74795532 C-10.88247849 28.02208163 -10.26792717 26.29583386 -9.6545105 24.56918335 C-3.72662723 7.89275841 -3.72662723 7.89275841 0 0 Z " fill="#191B18" transform="translate(381,460)"/>
<path d="M0 0 C1.43931117 0.45261358 2.87638999 0.91232979 4.3125 1.375 C5.11300781 1.63023437 5.91351563 1.88546875 6.73828125 2.1484375 C9 3 9 3 12 5 C10.14779256 11.57813106 7.96492527 17.86766961 5.27734375 24.1484375 C4.93119522 24.96825104 4.58504669 25.78806458 4.22840881 26.63272095 C3.50388526 28.34617496 2.77692857 30.05860207 2.04760742 31.77001953 C0.93217679 34.38749146 -0.17615128 37.00788092 -1.28320312 39.62890625 C-1.99178301 41.30225467 -2.70075345 42.97543778 -3.41015625 44.6484375 C-3.74040298 45.42762543 -4.07064972 46.20681335 -4.41090393 47.00961304 C-4.72140182 47.73782257 -5.03189972 48.4660321 -5.35180664 49.21630859 C-5.62255508 49.85233002 -5.89330353 50.48835144 -6.17225647 51.14364624 C-7.05686034 53.12751886 -8.01533408 55.06410174 -9 57 C-9.33 57 -9.66 57 -10 57 C-8.88888889 8.88888889 -8.88888889 8.88888889 0 0 Z " fill="#ECEDED" transform="translate(302,434)"/>
<path d="M0 0 C8.71821499 3.55262157 16.09270619 13.86102348 22 21 C22.42893555 21.5151416 22.85787109 22.0302832 23.29980469 22.56103516 C30.84243121 31.65865814 37.6200325 41.0574959 44 51 C44.87398437 52.31097656 44.87398437 52.31097656 45.765625 53.6484375 C46.91017505 55.39041752 47.96970421 57.1881005 49 59 C48.505 59.99 48.505 59.99 48 61 C47.47792969 60.27296875 46.95585938 59.5459375 46.41796875 58.796875 C41.17941026 51.64087567 35.61213393 44.95564079 29.47558594 38.54296875 C28.48410187 37.50620844 27.49783023 36.4644404 26.51660156 35.41796875 C19.40809729 27.85396808 11.93275684 21.34760147 3.47216797 15.31274414 C2.77494629 14.80606201 2.07772461 14.29937988 1.359375 13.77734375 C0.73514648 13.33640381 0.11091797 12.89546387 -0.53222656 12.44116211 C-2.32509152 10.68080252 -2.67659387 9.46748049 -3 7 C-2.27272937 4.49778218 -1.13552032 2.36188227 0 0 Z " fill="#F0F0F1" transform="translate(677,330)"/>
<path d="M0 0 C2.475 0.495 2.475 0.495 5 1 C6.31025548 4.93076643 5.04119314 7.11223856 3.52734375 10.75390625 C3.2530101 11.43469238 2.97867645 12.11547852 2.69602966 12.81689453 C1.78561938 15.06924162 0.8616967 17.31577859 -0.0625 19.5625 C-0.69851024 21.12786674 -1.33375433 22.69354497 -1.96826172 24.25952148 C-3.96539803 29.17855749 -5.98179724 34.08957828 -8 39 C-8.65913055 40.60672423 -9.31814893 42.21349448 -9.97705078 43.8203125 C-12.71656817 50.4980232 -15.46248232 57.17302139 -18.22224426 63.84239197 C-20.85765032 70.21140893 -23.46369269 76.5907343 -26 83 C-26.66 83 -27.32 83 -28 83 C-27.41194435 77.55603025 -26.06395529 72.85358276 -24.15625 67.734375 C-23.87107513 66.95114365 -23.58590027 66.16791229 -23.29208374 65.36094666 C-22.68237117 63.68755333 -22.06977481 62.01520836 -21.45452881 60.34384155 C-19.84312085 55.96499318 -18.25320729 51.57837432 -16.6640625 47.19140625 C-16.34784943 46.31946121 -16.03163635 45.44751617 -15.70584106 44.54914856 C-12.5875299 35.918903 -9.67209653 27.2299631 -6.84179688 18.50097656 C-4.79615475 12.22671751 -2.5340731 6.09400196 0 0 Z " fill="#EBEBEC" transform="translate(400,598)"/>
<path d="M0 0 C2.31 0 4.62 0 7 0 C4.70568502 8.47241927 1.59158201 16.60645917 -1.56079102 24.78637695 C-2.43639435 27.0596295 -3.30551442 29.33528257 -4.17382812 31.61132812 C-11.96622668 51.96622668 -11.96622668 51.96622668 -14 54 C-15.66617115 54.04063832 -17.33388095 54.042721 -19 54 C-6.11811831 14.73518636 -6.11811831 14.73518636 0 0 Z " fill="#EDEDEE" transform="translate(577,680)"/>
<path d="M0 0 C1.32 0 2.64 0 4 0 C6.18985157 4.25088833 6.26503315 7.49129209 5 12 C1.16303123 23.16729717 1.16303123 23.16729717 -1.98046875 25.41796875 C-4 26 -4 26 -7 25 C-7.11214844 25.69480469 -7.22429687 26.38960937 -7.33984375 27.10546875 C-8.08446115 30.37032964 -9.24400088 33.23600205 -10.5625 36.3125 C-11.01753906 37.38113281 -11.47257812 38.44976563 -11.94140625 39.55078125 C-12.29074219 40.35902344 -12.64007813 41.16726563 -13 42 C-14.63129887 37.93714243 -13.29968777 34.79897816 -12.0625 30.75 C-11.68222656 29.48671875 -11.30195313 28.2234375 -10.91015625 26.921875 C-10.60980469 25.95765625 -10.30945313 24.9934375 -10 24 C-18.28021839 19.32247279 -26.92486302 16.64597666 -36 14 C-36.66 15.32 -37.32 16.64 -38 18 C-38.66 15.36 -39.32 12.72 -40 10 C-35.2169271 10.55077809 -31.1060143 11.52549687 -26.62890625 13.28515625 C-25.47841797 13.73310547 -24.32792969 14.18105469 -23.14257812 14.64257812 C-21.96115234 15.11115234 -20.77972656 15.57972656 -19.5625 16.0625 C-18.35400391 16.53494141 -17.14550781 17.00738281 -15.90039062 17.49414062 C-12.9309088 18.65611177 -9.96430531 19.82489989 -7 21 C-6.86408447 20.08976074 -6.72816895 19.17952148 -6.58813477 18.24169922 C-6.11711816 15.64553547 -5.58517945 13.547031 -4.58984375 11.1328125 C-4.18862305 10.14667969 -4.18862305 10.14667969 -3.77929688 9.140625 C-3.50150391 8.47546875 -3.22371094 7.8103125 -2.9375 7.125 C-2.65583984 6.43664062 -2.37417969 5.74828125 -2.08398438 5.0390625 C-1.39484734 3.35710091 -0.69819202 1.67822303 0 0 Z " fill="#060605" transform="translate(407,573)"/>
<path d="M0 0 C3.64775386 3.88309282 4.58525633 6.71201818 5 12 C5.60199219 12.09539063 6.20398438 12.19078125 6.82421875 12.2890625 C9.47898506 13.15650858 10.23036544 14.10934507 11.8125 16.375 C12.25207031 16.98085938 12.69164062 17.58671875 13.14453125 18.2109375 C14 20 14 20 13 23 C10.36 22.34 7.72 21.68 5 21 C4.62746094 22.20527344 4.25492187 23.41054688 3.87109375 24.65234375 C1.7056129 31.14370599 -1.13261375 37.32752143 -3.9375 43.5625 C-4.46279297 44.74263672 -4.98808594 45.92277344 -5.52929688 47.13867188 C-8.2235015 53.16438361 -10.9872162 59.12688652 -14 65 C-15.40327752 60.79016743 -13.72419776 58.01112698 -12.140625 54.078125 C-11.83558044 53.29991394 -11.53053589 52.52170288 -11.21624756 51.71990967 C-10.23625012 49.22638629 -9.24320065 46.73828973 -8.25 44.25 C-7.59551775 42.58887097 -6.94186219 40.92741597 -6.2890625 39.265625 C-3.61193404 32.47119555 -0.90452713 25.70089163 2 19 C-0.31 18.34 -2.62 17.68 -5 17 C-4.34 16.67 -3.68 16.34 -3 16 C-3.2475 15.030625 -3.495 14.06125 -3.75 13.0625 C-4.51225469 8.10276285 -2.26728373 4.29129667 0 0 Z " fill="#0C0C0C" transform="translate(416,586)"/>
<path d="M0 0 C0.66 0 1.32 0 2 0 C1.44103909 5.18647208 0.19048002 9.6626549 -1.7734375 14.50390625 C-2.0533252 15.21266403 -2.33321289 15.92142181 -2.62158203 16.6516571 C-3.22200183 18.17067502 -3.82567039 19.68841218 -4.43231201 21.20495605 C-6.03363221 25.2096562 -7.6101489 29.22409255 -9.1875 33.23828125 C-9.50737885 34.0509848 -9.82725769 34.86368835 -10.15682983 35.70101929 C-13.35017884 43.84008234 -16.38528908 52.03429866 -19.375 60.25 C-19.61337585 60.90437042 -19.85175171 61.55874084 -20.09735107 62.23294067 C-21.40328638 65.82014085 -22.70422923 69.40911635 -24 73 C-21.38952199 71.694761 -21.31933577 70.64173426 -20.375 67.9375 C-20.11460937 67.20402344 -19.85421875 66.47054687 -19.5859375 65.71484375 C-19.39257812 65.14894531 -19.19921875 64.58304688 -19 64 C-17.88653212 66.80033839 -17.96489727 67.90143703 -18.99609375 70.796875 C-19.47175781 71.77140625 -19.94742187 72.7459375 -20.4375 73.75 C-20.91058594 74.73484375 -21.38367188 75.7196875 -21.87109375 76.734375 C-22.24363281 77.48203125 -22.61617188 78.2296875 -23 79 C-23.99 79 -24.98 79 -26 79 C-26.26627197 79.7842334 -26.53254395 80.5684668 -26.80688477 81.37646484 C-31.90870756 96.37123474 -37.06134082 111.31066753 -43 126 C-44.09093749 122.72718753 -43.98054297 122.2067623 -42.91113281 119.11230469 C-42.64581253 118.33045303 -42.38049225 117.54860138 -42.10713196 116.74305725 C-41.80880966 115.89456711 -41.51048737 115.04607697 -41.203125 114.171875 C-40.89880051 113.28402817 -40.59447601 112.39618134 -40.28092957 111.48143005 C-39.27952806 108.56779504 -38.26503423 105.65891099 -37.25 102.75 C-36.55154306 100.72848617 -35.85371188 98.70675602 -35.15649414 96.68481445 C-33.11818655 90.78501041 -31.06223759 84.89147648 -29 79 C-28.729599 78.22678406 -28.459198 77.45356812 -28.18060303 76.65692139 C-25.54054775 69.11215554 -22.87005462 61.57851352 -20.17018127 54.05493164 C-18.53993002 49.51200393 -16.91923099 44.96574528 -15.3021698 40.41810608 C-14.03651407 36.86054061 -12.76761478 33.30413721 -11.49807739 29.74795532 C-10.88247849 28.02208163 -10.26792717 26.29583386 -9.6545105 24.56918335 C-3.72662723 7.89275841 -3.72662723 7.89275841 0 0 Z " fill="#E9E6EC" transform="translate(381,460)"/>
<path d="M0 0 C5.08190913 1.53526127 8.42477886 4.67369658 12.3125 8.125 C12.95767578 8.68832031 13.60285156 9.25164062 14.26757812 9.83203125 C15.85026301 11.21541508 17.42585141 12.60691045 19 14 C18.57742724 15.4835001 18.13643678 16.96176424 17.6875 18.4375 C17.44386719 19.26121094 17.20023438 20.08492188 16.94921875 20.93359375 C16.63597656 21.61550781 16.32273437 22.29742187 16 23 C13 24 13 24 11.09887695 23.19555664 C10.40238037 22.77137451 9.70588379 22.34719238 8.98828125 21.91015625 C8.23095703 21.45576172 7.47363281 21.00136719 6.69335938 20.53320312 C5.90767578 20.04787109 5.12199219 19.56253906 4.3125 19.0625 C3.11657227 18.34030273 3.11657227 18.34030273 1.89648438 17.60351562 C-0.07472743 16.41134561 -2.03968412 15.2099739 -4 14 C-3.25320402 8.93918838 -1.8777744 4.73525719 0 0 Z " fill="#F0F1F1" transform="translate(657,314)"/>
<path d="M0 0 C1.18414294 3.55242882 0.69535532 4.69830562 -0.4375 8.1875 C-0.86869141 9.53908203 -0.86869141 9.53908203 -1.30859375 10.91796875 C-1.65083984 11.94857422 -1.65083984 11.94857422 -2 13 C-1.34 13 -0.68 13 0 13 C-0.48578543 16.12290635 -0.9986012 18.99580359 -2 22 C-2.66 22 -3.32 22 -4 22 C-3.67 20.35 -3.34 18.7 -3 17 C-6.0227243 19.55709283 -7.19681067 22.35701398 -8.69921875 25.98046875 C-9.18583984 27.14384766 -9.67246094 28.30722656 -10.17382812 29.50585938 C-10.67333984 30.72080078 -11.17285156 31.93574219 -11.6875 33.1875 C-12.20309754 34.42671481 -12.71936635 35.66565056 -13.23632812 36.90429688 C-14.49752043 39.93351579 -15.75177179 42.96542134 -17 46 C-15.515 46.495 -15.515 46.495 -14 47 C-14.66 47 -15.32 47 -16 47 C-16.38671875 48.22589844 -16.7734375 49.45179688 -17.171875 50.71484375 C-19.20318608 56.80283053 -21.72308333 62.66679261 -24.25 68.5625 C-24.73726563 69.70259521 -25.22453125 70.84269043 -25.7265625 72.01733398 C-26.69974463 74.29211503 -27.67432119 76.5663001 -28.65039062 78.83984375 C-29.8404586 81.6264284 -31.01118902 84.41983866 -32.171875 87.21875 C-32.78100801 88.66676849 -33.39036177 90.11469415 -34 91.5625 C-34.26586914 92.21613525 -34.53173828 92.86977051 -34.80566406 93.54321289 C-35.5625 95.31640625 -35.5625 95.31640625 -37 98 C-38.485 98.495 -38.485 98.495 -40 99 C-39.36063973 94.94853882 -38.05857844 91.60684422 -36.34765625 87.88671875 C-35.81849609 86.72076172 -35.28933594 85.55480469 -34.74414062 84.35351562 C-33.62964957 81.9199771 -32.51099529 79.4883804 -31.39257812 77.05664062 C-30.86212891 75.88681641 -30.33167969 74.71699219 -29.78515625 73.51171875 C-29.29926025 72.45428467 -28.81336426 71.39685059 -28.31274414 70.30737305 C-27.11624169 67.29286335 -26.35982539 64.35855569 -25.61805725 61.20967102 C-24.3754873 56.76724954 -22.43714011 52.58449153 -20.60546875 48.359375 C-20.17623611 47.35594055 -19.74700348 46.3525061 -19.30476379 45.31866455 C-17.93795416 42.12666807 -16.56297053 38.93827262 -15.1875 35.75 C-14.27482686 33.62393984 -13.36271227 31.49763982 -12.45117188 29.37109375 C-11.13490846 26.30074068 -9.81820516 23.23058637 -8.49899292 20.16149902 C-5.61912092 13.46000699 -2.77250478 6.7467657 0 0 Z " fill="#DCDAE1" transform="translate(424,356)"/>
<path d="M0 0 C0.99 0.66 1.98 1.32 3 2 C2.69562012 2.71615479 2.39124023 3.43230957 2.07763672 4.17016602 C-1.09273678 11.69478665 -4.04943169 19.27726878 -6.875 26.9375 C-7.52843384 28.70456299 -7.52843384 28.70456299 -8.19506836 30.50732422 C-11.07726719 38.35434297 -13.80070319 46.23887674 -16.39941406 54.18359375 C-18.522078 60.64706872 -20.79607885 67.04569745 -23.125 73.4375 C-27.83337585 86.35997859 -32.25658084 99.37658552 -36.65869141 112.40600586 C-37.19822637 113.99593636 -37.73777646 115.58586172 -38.27734375 117.17578125 C-38.52281448 117.90699188 -38.76828522 118.63820251 -39.02119446 119.39157104 C-40.15134132 122.7161284 -41.30701182 125.91735692 -43 129 C-44.19437207 125.54584568 -43.80278073 123.57907794 -42.60742188 120.16357422 C-42.27481354 119.19676224 -41.9422052 118.22995026 -41.59951782 117.23384094 C-41.03978775 115.66015999 -41.03978775 115.66015999 -40.46875 114.0546875 C-40.08617035 112.95299728 -39.7035907 111.85130707 -39.30941772 110.7162323 C-38.05004069 107.0987507 -36.77532773 103.48688596 -35.5 99.875 C-34.62571489 97.37583189 -33.75218518 94.8763994 -32.87939453 92.37670898 C-30.26977028 84.91183868 -27.63629499 77.45549378 -25 70 C-24.25612599 67.89243616 -23.51230754 65.7848527 -22.76855469 63.67724609 C-16.51524533 45.97319241 -10.22836737 28.28139312 -3.52294922 10.74243164 C-3.03592529 9.46613892 -3.03592529 9.46613892 -2.5390625 8.1640625 C-2.26271973 7.44686035 -1.98637695 6.7296582 -1.70166016 5.99072266 C-1.00428854 4.01216728 -0.4740764 2.04248393 0 0 Z " fill="#2D2E2B" transform="translate(379,458)"/>
<path d="M0 0 C2.02045442 0.60183749 4.02111039 1.27306096 6 2 C7 4 7 4 6.50390625 5.96875 C3.08495213 15.16162248 -0.95283903 24.07070553 -5 33 C-5.495 31.515 -5.495 31.515 -6 30 C-7.11277549 26.25575842 -7.11277549 26.25575842 -10 24 C-3.7 3.7 -3.7 3.7 0 0 Z " fill="#D9D9D9" transform="translate(319,439)"/>
<path d="M0 0 C3.99500618 1.3697164 6.80009492 3.25722422 10 6 C9.57388649 7.75280733 9.13360733 9.50217435 8.6875 11.25 C8.44386719 12.22453125 8.20023438 13.1990625 7.94921875 14.203125 C7 17 7 17 4 21 C0.7 19.35 -2.6 17.7 -6 16 C-5.19110952 13.51960151 -4.37808099 11.04069788 -3.5625 8.5625 C-3.33240234 7.85544922 -3.10230469 7.14839844 -2.86523438 6.41992188 C-1.11328125 1.11328125 -1.11328125 1.11328125 0 0 Z " fill="#F1F2F2" transform="translate(644,305)"/>
<path d="M0 0 C2.12890625 2.08984375 2.12890625 2.08984375 4 5 C3.46484375 8.00390625 3.46484375 8.00390625 1.9375 11.5625 C1.344576 12.9998037 0.75216927 14.43732084 0.16015625 15.875 C-0.18257324 16.68195312 -0.52530273 17.48890625 -0.87841797 18.3203125 C-2.57484587 22.37342366 -4.16071889 26.46840126 -5.75830078 30.5612793 C-7.1528142 34.13375462 -8.55815339 37.70183487 -9.96484375 41.26953125 C-13.23821709 49.58376093 -16.46526727 57.91584316 -19.6875 66.25 C-19.95556458 66.943284 -20.22362915 67.63656799 -20.49981689 68.3508606 C-22.00085565 72.23352977 -23.50088307 76.11658832 -25 80 C-25.99 79.34 -26.98 78.68 -28 78 C-27.34 78 -26.68 78 -26 78 C-25.90178955 77.36876221 -25.8035791 76.73752441 -25.70239258 76.0871582 C-24.72708082 71.80046473 -23.2410528 67.7413309 -21.76171875 63.60546875 C-21.2786602 62.24619011 -21.2786602 62.24619011 -20.7858429 60.85945129 C-20.10419795 58.9449761 -19.42074052 57.03114539 -18.7355957 55.11791992 C-17.69568046 52.21037212 -16.6648969 49.29969818 -15.63476562 46.38867188 C-14.96930481 44.52323949 -14.30330637 42.65799878 -13.63671875 40.79296875 C-13.33239426 39.93124557 -13.02806976 39.0695224 -12.71452332 38.1816864 C-11.03617879 33.52111168 -9.14800664 29.11117807 -6.87205505 24.71153259 C-5.14852823 21.32886504 -3.94627892 17.76192735 -2.6875 14.1875 C-2.41099609 13.43791016 -2.13449219 12.68832031 -1.84960938 11.91601562 C-0.19800055 7.51608908 -0.19800055 7.51608908 -1 3 C-0.67 2.01 -0.34 1.02 0 0 Z " fill="#1D1D1C" transform="translate(446,634)"/>
<path d="M0 0 C1 2 1 2 0.32250977 4.37231445 C-0.05075439 5.3593335 -0.42401855 6.34635254 -0.80859375 7.36328125 C-1.22133545 8.46559082 -1.63407715 9.56790039 -2.05932617 10.70361328 C-2.74152222 12.49001221 -2.74152222 12.49001221 -3.4375 14.3125 C-3.90196533 15.54726074 -4.36643066 16.78202148 -4.8449707 18.05419922 C-7.72594173 25.71001483 -10.65709657 33.34693538 -13.59399414 40.98144531 C-16.04403963 47.39139876 -18.40977439 53.83092409 -20.76171875 60.27734375 C-21.09767563 61.19797607 -21.43363251 62.1186084 -21.7797699 63.06713867 C-23.48963591 67.75569953 -25.19557832 72.4456541 -26.8972168 77.13720703 C-27.53300268 78.88445382 -28.16882471 80.63168745 -28.8046875 82.37890625 C-29.09707809 83.18843246 -29.38946869 83.99795868 -29.6907196 84.83201599 C-29.96535538 85.58555862 -30.23999115 86.33910126 -30.52294922 87.11547852 C-30.76085175 87.77161636 -30.99875427 88.42775421 -31.24386597 89.10377502 C-32.0533403 91.13376624 -32.99741354 93.05905828 -34 95 C-34 94.34 -34 93.68 -34 93 C-34.66 92.67 -35.32 92.34 -36 92 C-35.71664795 91.34185303 -35.4332959 90.68370605 -35.14135742 90.00561523 C-31.23600398 80.79752286 -27.76590943 71.4471669 -24.3125 62.0625 C-23.44006784 59.69778145 -22.56692794 57.33332662 -21.69316101 54.96910095 C-21.15465845 53.51140034 -20.61701919 52.05338041 -20.08039856 50.59498596 C-19.04303618 47.78190617 -17.99459466 44.98718923 -16.82885742 42.22436523 C-15.77889309 39.40662589 -15.86137209 36.98050013 -16 34 C-15.01 34 -14.02 34 -13 34 C-12.82404297 33.45617676 -12.64808594 32.91235352 -12.46679688 32.35205078 C-10.64308227 26.78924508 -8.64002093 21.32317556 -6.5 15.875 C-6.20480469 15.11574219 -5.90960938 14.35648438 -5.60546875 13.57421875 C-3.82217404 9.00992699 -1.95474413 4.49352766 0 0 Z " fill="#313130" transform="translate(372,550)"/>
<path d="M0 0 C4.78642607 0.5746621 8.53788787 1.98245643 12.875 4.0625 C14.02742188 4.61035156 15.17984375 5.15820312 16.3671875 5.72265625 C17.67042969 6.35494141 17.67042969 6.35494141 19 7 C18.67 9.31 18.34 11.62 18 14 C14.51371731 15.16209423 14.13629782 14.88616059 10.98828125 13.34765625 C10.23095703 12.98349609 9.47363281 12.61933594 8.69335938 12.24414062 C7.90767578 11.85419922 7.12199219 11.46425781 6.3125 11.0625 C5.51521484 10.67642578 4.71792969 10.29035156 3.89648438 9.89257812 C1.92653557 8.93709398 -0.03849939 7.97267894 -2 7 C-1.125 2.25 -1.125 2.25 0 0 Z " fill="#F0F1F1" transform="translate(489,660)"/>
<path d="M0 0 C1.14794922 1.50439453 1.14794922 1.50439453 2 4 C1.35030769 6.78131805 0.60273158 9.26157584 -0.3671875 11.9296875 C-0.63714539 12.70900131 -0.90710327 13.48831512 -1.1852417 14.29124451 C-2.06705279 16.82462069 -2.970277 19.34972496 -3.875 21.875 C-4.48331849 23.60273609 -5.09057627 25.33084601 -5.69677734 27.05932617 C-6.89779936 30.47518937 -8.10799165 33.88758279 -9.32617188 37.29736328 C-10.75967806 41.31314292 -12.15964736 45.33910632 -13.546875 49.37109375 C-14.23845233 51.35195773 -14.93104864 53.33246646 -15.625 55.3125 C-15.93034668 56.20501465 -16.23569336 57.0975293 -16.55029297 58.01708984 C-17.27772878 60.04560361 -18.12596966 62.03020257 -19 64 C-20.485 64.495 -20.485 64.495 -22 65 C-20.58847374 57.85876717 -18.44141557 51.22256218 -15.9375 44.39453125 C-15.54554443 43.31169357 -15.15358887 42.2288559 -14.74975586 41.11320496 C-13.50503494 37.67772379 -12.25276131 34.24505635 -11 30.8125 C-9.74891394 27.36864244 -8.49937238 23.92422814 -7.25024414 20.47966003 C-6.47488961 18.3433013 -5.6980989 16.20746311 -4.91967773 14.07221985 C-3.21840889 9.40009913 -1.53474068 4.73027569 0 0 Z " fill="#1D1E1C" transform="translate(392,613)"/>
<path d="M0 0 C6.75 -0.125 6.75 -0.125 9 1 C6.42374363 10.46548811 2.88652932 19.57839563 -0.5625 28.75 C-1.45003667 31.11724746 -2.33663664 33.48484019 -3.22215271 35.85284424 C-3.76952659 37.31587158 -4.31816529 38.77842657 -4.86830139 40.24041748 C-6.32854697 44.13538437 -7.71153744 48.04486291 -9 52 C-9.99 51.34 -10.98 50.68 -12 50 C-9.74676608 41.81102649 -6.81372355 33.89406759 -3.81152344 25.95825195 C-2.9981352 23.80756927 -2.19008943 21.65493623 -1.3828125 19.50195312 C-0.85968572 18.1118622 -0.33625859 16.72188425 0.1875 15.33203125 C0.42509033 14.69956985 0.66268066 14.06710846 0.9074707 13.41548157 C2.49570833 9.22417164 4.21142247 5.10838633 6 1 C4.02 1 2.04 1 0 1 C0 0.67 0 0.34 0 0 Z " fill="#171717" transform="translate(578,679)"/>
<path d="M0 0 C0.99 0.33 1.98 0.66 3 1 C2.73896484 1.72775635 2.47792969 2.4555127 2.20898438 3.20532227 C-3.61125237 19.44159127 -9.36974598 35.69661813 -15 52 C-15.99 51.34 -16.98 50.68 -18 50 C-15.62305399 41.56079914 -12.73199922 33.31111962 -9.81152344 25.04882812 C-8.99734448 22.74247763 -8.18992518 20.43383143 -7.3828125 18.125 C-6.85978289 16.64048123 -6.33635916 15.15610124 -5.8125 13.671875 C-5.57490967 12.99050476 -5.33731934 12.30913452 -5.0925293 11.6071167 C-3.65977359 7.57658296 -1.98914206 3.78611774 0 0 Z " fill="#161616" transform="translate(574,681)"/>
<path d="M0 0 C0.66 0 1.32 0 2 0 C1.40892555 4.43451217 0.28117444 8.17362034 -1.44140625 12.296875 C-1.93930664 13.49546143 -2.43720703 14.69404785 -2.95019531 15.92895508 C-3.48734913 17.20275528 -4.02478908 18.47643487 -4.5625 19.75 C-5.10676866 21.05154127 -5.65071236 22.35321846 -6.19433594 23.6550293 C-10.31790522 33.50122047 -14.5778228 43.28421656 -19 53 C-19.99 52.34 -20.98 51.68 -22 51 C-21.75467529 50.43941895 -21.50935059 49.87883789 -21.2565918 49.30126953 C-15.58207977 36.3223464 -9.9894732 23.31170674 -4.49291992 10.25634766 C-4.05052979 9.20624512 -3.60813965 8.15614258 -3.15234375 7.07421875 C-2.76038818 6.14182373 -2.36843262 5.20942871 -1.96459961 4.2487793 C-1.34950306 2.81479947 -0.69780254 1.39560507 0 0 Z " fill="#151715" transform="translate(408,403)"/>
<path d="M0 0 C0.99 0.66 1.98 1.32 3 2 C2.57589844 2.95777344 2.15179688 3.91554688 1.71484375 4.90234375 C-1.47951232 12.14644061 -4.5936536 19.41039826 -7.5625 26.75 C-10.37684388 33.68823864 -13.51226583 40.3694724 -17 47 C-17.99 46.67 -18.98 46.34 -20 46 C-15.02592507 34.00112129 -10.0339469 22.01001122 -4.9375 10.0625 C-4.55601807 9.16378174 -4.17453613 8.26506348 -3.78149414 7.33911133 C-3.42949951 6.51693115 -3.07750488 5.69475098 -2.71484375 4.84765625 C-2.40667725 4.12586182 -2.09851074 3.40406738 -1.78100586 2.66040039 C-1 1 -1 1 0 0 Z " fill="#EAEAEC" transform="translate(408,411)"/>
<path d="M0 0 C1.13179688 0.5053125 2.26359375 1.010625 3.4296875 1.53125 C4.91137289 2.18769289 6.39314841 2.84393237 7.875 3.5 C8.62136719 3.83386719 9.36773437 4.16773438 10.13671875 4.51171875 C10.85214844 4.82753906 11.56757813 5.14335938 12.3046875 5.46875 C13.2944458 5.90864258 13.2944458 5.90864258 14.30419922 6.35742188 C16.00946207 7.11811255 16.00946207 7.11811255 18 7 C18.66 4.69 19.32 2.38 20 0 C22.30143236 3.45214853 22.13833854 4.23479324 21.625 8.1875 C21.45871094 9.53908203 21.45871094 9.53908203 21.2890625 10.91796875 C21.14597656 11.94857422 21.14597656 11.94857422 21 13 C20.01 13.33 19.02 13.66 18 14 C17.15664917 15.84539896 17.15664917 15.84539896 16.6484375 18.16796875 C14.76527977 25.05777926 12.18591483 31.65187502 9.625 38.3125 C9.15578125 39.54162109 8.6865625 40.77074219 8.203125 42.03710938 C6.80634125 45.6930558 5.40424027 49.3469117 4 53 C3.75793823 53.62984802 3.51587646 54.25969604 3.26647949 54.90863037 C1.84536546 58.60615636 0.42316436 62.30326273 -1 66 C-1.66 65.67 -2.32 65.34 -3 65 C-2.78924332 64.443694 -2.57848663 63.887388 -2.36134338 63.31422424 C-0.15890012 57.49451727 2.02880806 51.66942245 4.20825195 45.84106445 C5.02223436 43.67006747 5.83989432 41.50044548 6.66137695 39.33227539 C7.84528504 36.20558059 9.01563726 33.07408912 10.18359375 29.94140625 C10.55028671 28.98166397 10.91697968 28.02192169 11.29478455 27.03309631 C13.42191327 21.28030803 14.58033668 16.12489017 15 10 C9.72 7.36 4.44 4.72 -1 2 C-0.67 1.34 -0.34 0.68 0 0 Z " fill="#353634" transform="translate(488,667)"/>
<path d="M0 0 C1.98 0.99 3.96 1.98 6 3 C4.83348574 8.92863717 3.24480642 14.38798394 1 20 C-1.3431213 19.74438677 -3.67843403 19.40729228 -6 19 C-7.27351308 16.45297384 -6.80191925 15.5717055 -6.0625 12.875 C-5.86785156 12.15054687 -5.67320312 11.42609375 -5.47265625 10.6796875 C-5.31667969 10.12539063 -5.16070313 9.57109375 -5 9 C-4.34 9 -3.68 9 -3 9 C-2.01 6.03 -1.02 3.06 0 0 Z " fill="#EAEAEA" transform="translate(636,300)"/>
<path d="M0 0 C0.66 0.33 1.32 0.66 2 1 C1.01 4.3 0.02 7.6 -1 11 C1.61047801 9.694761 1.68066423 8.64173426 2.625 5.9375 C2.88539063 5.20402344 3.14578125 4.47054687 3.4140625 3.71484375 C3.60742188 3.14894531 3.80078125 2.58304688 4 2 C5.11346788 4.80033839 5.03510273 5.90143703 4.00390625 8.796875 C3.52824219 9.77140625 3.05257813 10.7459375 2.5625 11.75 C2.08941406 12.73484375 1.61632812 13.7196875 1.12890625 14.734375 C0.75636719 15.48203125 0.38382812 16.2296875 0 17 C-0.99 17 -1.98 17 -3 17 C-3.26627197 17.7842334 -3.53254395 18.5684668 -3.80688477 19.37646484 C-8.90870756 34.37123474 -14.06134082 49.31066753 -20 64 C-21.1119946 60.66401619 -20.93276767 60.06974432 -19.83178711 56.89013672 C-19.55076645 56.06432098 -19.26974579 55.23850525 -18.98020935 54.38766479 C-18.6657637 53.49403229 -18.35131805 52.60039978 -18.02734375 51.6796875 C-17.70721817 50.74762482 -17.38709259 49.81556213 -17.05726624 48.85525513 C-16.0257862 45.85884535 -14.98177641 42.86697109 -13.9375 39.875 C-13.26025348 37.91304129 -12.58381242 35.95080435 -11.90820312 33.98828125 C-7.99402788 22.63948911 -4.01193955 11.31456043 0 0 Z " fill="#C6C6CC" transform="translate(358,522)"/>
<path d="M0 0 C1.98 0 3.96 0 6 0 C6 0.66 6 1.32 6 2 C4.35 2 2.7 2 1 2 C0.83129395 2.60948486 0.66258789 3.21896973 0.48876953 3.84692383 C-1.28466452 10.02788051 -3.51026555 15.81963583 -6.125 21.6875 C-11.07592002 32.99990272 -15.57074878 44.47508517 -20 56 C-20.33 55.34 -20.66 54.68 -21 54 C-21.66 54 -22.32 54 -23 54 C-21.18473209 47.96629702 -18.55934953 42.3068374 -16 36.5625 C-15.01386026 34.33614237 -14.02819487 32.10957458 -13.04296875 29.8828125 C-12.28959229 28.1817334 -12.28959229 28.1817334 -11.52099609 26.44628906 C-9.09647369 20.95278052 -6.70320988 15.44578951 -4.3125 9.9375 C-3.87873047 8.93855713 -3.44496094 7.93961426 -2.99804688 6.91040039 C-1.99820937 4.60714502 -0.99882524 2.30369448 0 0 Z " fill="#222221" transform="translate(452,319)"/>
<path d="M0 0 C0.99 0 1.98 0 3 0 C0.7419873 8.68633246 -2.76453829 16.75412486 -6.375 24.9375 C-6.94581798 26.24391988 -7.51613314 27.55055958 -8.0859375 28.85742188 C-11.3239359 36.2685996 -14.62800038 43.64873481 -18 51 C-19.15188885 47.54433346 -18.86184027 46.95138392 -17.5847168 43.68383789 C-17.25074387 42.81606216 -16.91677094 41.94828644 -16.57267761 41.05421448 C-16.20193619 40.11980026 -15.83119476 39.18538605 -15.44921875 38.22265625 C-15.07521439 37.25976181 -14.70121002 36.29686737 -14.31587219 35.30479431 C-13.1151419 32.22054163 -11.90125388 29.14164743 -10.6875 26.0625 C-9.88004375 23.99055205 -9.07339307 21.91828996 -8.26757812 19.84570312 C-6.78415751 16.04383527 -5.30053207 12.24207449 -3.8034668 8.44555664 C-3.50288864 7.68183243 -3.20231049 6.91810822 -2.8926239 6.13124084 C-2.0148337 4.03541715 -1.0404034 2.0193477 0 0 Z " fill="#E2E0E4" transform="translate(386,462)"/>
<path d="M0 0 C0.33 0 0.66 0 1 0 C1.39379413 5.19165321 0.02406047 8.9773619 -2.0625 13.625 C-4.79275584 19.96727289 -7.25834902 26.34391958 -9.5 32.875 C-12.1624501 40.6205155 -14.92794878 48.31954945 -17.77929688 55.99755859 C-18.88979833 58.98801734 -19.99114026 61.97342079 -21 65 C-21.99 64.67 -22.98 64.34 -24 64 C-16 42.66666667 -8 21.33333333 0 0 Z " fill="#2D2E2D" transform="translate(368,588)"/>
<path d="M0 0 C1.18414294 3.55242882 0.69535532 4.69830562 -0.4375 8.1875 C-0.86869141 9.53908203 -0.86869141 9.53908203 -1.30859375 10.91796875 C-1.65083984 11.94857422 -1.65083984 11.94857422 -2 13 C-1.34 13 -0.68 13 0 13 C-0.48578543 16.12290635 -0.9986012 18.99580359 -2 22 C-2.66 22 -3.32 22 -4 22 C-3.67 20.35 -3.34 18.7 -3 17 C-5.43547707 19.192013 -6.69958572 21.15104468 -7.96118164 24.16430664 C-8.49171898 25.41559105 -8.49171898 25.41559105 -9.03297424 26.69215393 C-9.40494431 27.5890947 -9.77691437 28.48603546 -10.16015625 29.41015625 C-10.55069687 30.33340195 -10.94123749 31.25664764 -11.34361267 32.20787048 C-12.59017539 35.15654775 -13.82710433 38.10912848 -15.0625 41.0625 C-16.30230424 44.01906705 -17.54423042 46.97466825 -18.792099 49.92784119 C-19.56831067 51.76542091 -20.3397467 53.60502656 -21.10597229 55.4467926 C-21.45651169 56.27783005 -21.80705109 57.10886749 -22.16821289 57.96508789 C-22.47449112 58.69772354 -22.78076935 59.43035919 -23.09632874 60.18519592 C-24 62 -24 62 -26 64 C-25.40012443 60.54469471 -24.51169695 57.52847226 -23.12988281 54.30834961 C-22.74568176 53.40648422 -22.36148071 52.50461884 -21.96563721 51.57542419 C-21.54900818 50.61080765 -21.13237915 49.6461911 -20.703125 48.65234375 C-20.27247742 47.64466446 -19.84182983 46.63698517 -19.39813232 45.59877014 C-18.01990833 42.37640351 -16.63514293 39.15689774 -15.25 35.9375 C-13.88060381 32.74248399 -12.51254895 29.54689636 -11.14471436 26.35121155 C-10.29442117 24.36601485 -9.44298092 22.38130889 -8.59014893 20.39720154 C-5.67858836 13.61793254 -2.8258635 6.81541942 0 0 Z " fill="#363832" transform="translate(424,356)"/>
<path d="M0 0 C0.99 0.66 1.98 1.32 3 2 C2.34 2 1.68 2 1 2 C0.90074219 2.82886719 0.80148437 3.65773438 0.69921875 4.51171875 C-0.1061357 8.52949261 -1.56238909 12.07673731 -3.1875 15.8125 C-5.65279325 21.62960495 -7.94277105 27.4637716 -10 33.4375 C-13.08614085 42.38972857 -16.51915997 51.19491649 -20 60 C-22.31 59.67 -24.62 59.34 -27 59 C-27 58.67 -27 58.34 -27 58 C-26.25814453 58.02610352 -25.51628906 58.05220703 -24.75195312 58.07910156 C-21.94902036 57.29451681 -21.94902036 57.29451681 -20.92749023 55.29187012 C-19.84127998 52.80178947 -18.89001878 50.29019096 -17.96875 47.734375 C-17.43115051 46.31780609 -17.43115051 46.31780609 -16.88269043 44.87261963 C-15.73611631 41.83849958 -14.61775628 38.79483932 -13.5 35.75 C-12.74794772 33.7440956 -11.9940613 31.73887783 -11.23828125 29.734375 C-9.79063402 25.88715725 -8.35316595 22.03642094 -6.92578125 18.18164062 C-4.67155066 12.09987966 -2.35100653 6.04503277 0 0 Z " fill="#2D2C2C" transform="translate(393,524)"/>
<path d="M0 0 C0.66 0 1.32 0 2 0 C3.7468289 2.56886602 4.00072196 3.98195089 3.875 7.125 C1.66627941 16.90647691 1.66627941 16.90647691 -1 21 C-3.640625 21.7890625 -3.640625 21.7890625 -6 22 C-7.13702419 18.66472903 -6.88480118 16.91003798 -5.56640625 13.671875 C-5.24736328 12.87265625 -4.92832031 12.0734375 -4.59960938 11.25 C-4.25736328 10.425 -3.91511719 9.6 -3.5625 8.75 C-3.22412109 7.90953125 -2.88574219 7.0690625 -2.53710938 6.203125 C-1.70126562 4.13117428 -0.85533351 2.06396385 0 0 Z " fill="#E9E9EA" transform="translate(409,574)"/>
<path d="M0 0 C0.99 0.99 1.98 1.98 3 3 C1.38663369 6.80626522 -0.2309929 10.61068478 -1.85229492 14.41357422 C-2.40127101 15.7028095 -2.94915554 16.99251023 -3.49584961 18.28271484 C-6.75895387 25.98136778 -10.13460313 33.58094927 -14 41 C-15.41802515 36.74592456 -13.67080853 33.87791022 -12.0703125 29.90234375 C-11.7605246 29.11227432 -11.45073669 28.3222049 -11.13156128 27.50819397 C-10.13812873 24.98107521 -9.13164084 22.45938252 -8.125 19.9375 C-7.45358783 18.23405451 -6.78300457 16.53028206 -6.11328125 14.82617188 C-1.27704199 2.55408398 -1.27704199 2.55408398 0 0 Z " fill="#1E1E1E" transform="translate(416,610)"/>
<path d="M0 0 C2.52540116 1.08231478 4.06647878 2.06855624 6 4.0625 C7.75931334 6.15688864 7.75931334 6.15688864 9.82421875 6.22265625 C13.29863448 7.46396456 14.8249051 10.42887329 16.8125 13.375 C17.46182495 14.31424316 17.46182495 14.31424316 18.12426758 15.27246094 C19.42982696 17.17277246 20.71672465 19.08458901 22 21 C22.73992188 22.09054687 23.47984375 23.18109375 24.2421875 24.3046875 C27.87066073 29.79839999 27.87066073 29.79839999 29 32 C28.67 32.66 28.34 33.32 28 34 C27.47792969 33.27296875 26.95585938 32.5459375 26.41796875 31.796875 C18.90657155 21.53612226 10.5909136 12.28876362 1.36328125 3.5234375 C0 2 0 2 0 0 Z " fill="#E6E6E6" transform="translate(697,357)"/>
<path d="M0 0 C3.63201262 3.86633601 4.80671378 6.68462908 5 12 C4.0625 14.4375 4.0625 14.4375 3 16 C-1.75 15.125 -1.75 15.125 -4 14 C-3.53328373 8.58609132 -2.75702189 4.79482068 0 0 Z " fill="#EDEEEE" transform="translate(416,586)"/>
<path d="M0 0 C0.66 0.66 1.32 1.32 2 2 C0.83732607 9.91764571 -2.19731939 17.15308983 -5.125 24.5625 C-5.59292969 25.76197266 -6.06085937 26.96144531 -6.54296875 28.19726562 C-7.68951857 31.13383709 -8.84197752 34.06793813 -10 37 C-10.99 36.67 -11.98 36.34 -13 36 C-12.64172119 35.05157227 -12.28344238 34.10314453 -11.91430664 33.12597656 C-10.58329369 29.60077585 -9.2552006 26.07448108 -7.92797852 22.54785156 C-7.35357742 21.0228126 -6.77838913 19.49806989 -6.20239258 17.97363281 C-5.37373116 15.78007522 -4.54792364 13.58546139 -3.72265625 11.390625 C-3.46533218 10.7113092 -3.20800812 10.03199341 -2.94288635 9.33209229 C-1.78747477 6.25147922 -0.69073045 3.22102283 0 0 Z " fill="#1F1F1E" transform="translate(679,645)"/>
<path d="M0 0 C0.66 0 1.32 0 2 0 C-0.02392461 6.27444779 -2.26976993 12.42984439 -4.6875 18.5625 C-5.16799805 19.78936523 -5.16799805 19.78936523 -5.65820312 21.04101562 C-6.43678254 23.02813622 -7.21809845 25.01418427 -8 27 C-8.99 27 -9.98 27 -11 27 C-11.33 26.34 -11.66 25.68 -12 25 C-11.22729492 22.69335938 -11.22729492 22.69335938 -9.98046875 19.84375 C-9.53509766 18.82152344 -9.08972656 17.79929687 -8.63085938 16.74609375 C-8.15455078 15.67488281 -7.67824219 14.60367187 -7.1875 13.5 C-6.72279297 12.42878906 -6.25808594 11.35757812 -5.77929688 10.25390625 C-2.27108233 2.27108233 -2.27108233 2.27108233 0 0 Z " fill="#131312" transform="translate(356,343)"/>
<path d="M0 0 C1.32 0.66 2.64 1.32 4 2 C2.20932248 6.6104318 0.41268592 11.21847998 -1.3894043 15.82446289 C-2.0010567 17.39023479 -2.61110344 18.95663495 -3.21948242 20.52368164 C-4.09648471 22.7818012 -4.97932158 25.0375651 -5.86328125 27.29296875 C-6.13215652 27.98899704 -6.4010318 28.68502533 -6.67805481 29.40214539 C-8.15921245 33.16313227 -9.80561896 36.60345478 -12 40 C-12.33 39.34 -12.66 38.68 -13 38 C-12.10754519 35.71728894 -11.00741295 33.57751264 -9.91015625 31.38671875 C-8.84747295 29.04720908 -8.84747295 29.04720908 -9.046875 26.5703125 C-8.98505641 23.18059296 -7.78822586 21.15916383 -6.1875 18.1875 C-1.54429338 9.53642099 -1.54429338 9.53642099 0 0 Z " fill="#2D2D2B" transform="translate(467,275)"/>
<path d="M0 0 C0.99 0.66 1.98 1.32 3 2 C2.52372025 3.95903745 2.04388577 5.91721097 1.5625 7.875 C1.16224609 9.51082031 1.16224609 9.51082031 0.75390625 11.1796875 C0 14 0 14 -1 16 C-1.66 16 -2.32 16 -3 16 C-3.99 18.97 -4.98 21.94 -6 25 C-6.66 25 -7.32 25 -8 25 C-7.3440206 19.36412069 -5.43967159 14.39011658 -3.4375 9.125 C-3.10814453 8.24585938 -2.77878906 7.36671875 -2.43945312 6.4609375 C-1.63113386 4.30541947 -0.81787706 2.15190559 0 0 Z " fill="#1B1B19" transform="translate(365,508)"/>
<path d="M0 0 C0.99 0.33 1.98 0.66 3 1 C2.01537456 4.00569871 1.01094863 7.00311671 0 10 C-0.39832031 11.21429687 -0.79664063 12.42859375 -1.20703125 13.6796875 C-1.63728654 14.95337328 -2.06827542 16.22681149 -2.5 17.5 C-2.9021875 18.7065625 -3.304375 19.913125 -3.71875 21.15625 C-4.35296875 22.56390625 -4.35296875 22.56390625 -5 24 C-5.99 24.33 -6.98 24.66 -8 25 C-7.40221436 19.36587037 -5.94103952 14.43539114 -4 9.125 C-3.72671875 8.35414063 -3.4534375 7.58328125 -3.171875 6.7890625 C-1.14466003 1.14466003 -1.14466003 1.14466003 0 0 Z " fill="#E1E0E3" transform="translate(380,656)"/>
<path d="M0 0 C6.75 -0.125 6.75 -0.125 9 1 C6.81659819 8.86379677 4.00714974 16.41675284 1 24 C0.01 23.67 -0.98 23.34 -2 23 C0.07042054 15.39162534 2.85830477 8.2271408 6 1 C4.02 1 2.04 1 0 1 C0 0.67 0 0.34 0 0 Z " fill="#1B1B1B" transform="translate(578,679)"/>
<path d="M0 0 C1.13179688 0.5053125 2.26359375 1.010625 3.4296875 1.53125 C4.91137289 2.18769289 6.39314841 2.84393237 7.875 3.5 C8.62136719 3.83386719 9.36773437 4.16773438 10.13671875 4.51171875 C10.85214844 4.82753906 11.56757813 5.14335938 12.3046875 5.46875 C13.2944458 5.90864258 13.2944458 5.90864258 14.30419922 6.35742188 C16.00946207 7.11811255 16.00946207 7.11811255 18 7 C18.66 4.69 19.32 2.38 20 0 C22.30143236 3.45214853 22.13833854 4.23479324 21.625 8.1875 C21.45871094 9.53908203 21.45871094 9.53908203 21.2890625 10.91796875 C21.14597656 11.94857422 21.14597656 11.94857422 21 13 C19.68 13.33 18.36 13.66 17 14 C16.74621582 13.38415039 16.49243164 12.76830078 16.23095703 12.13378906 C14.80992516 9.67051683 13.83906105 9.06621955 11.3046875 7.859375 C10.58925781 7.51132812 9.87382812 7.16328125 9.13671875 6.8046875 C8.39035156 6.45664062 7.64398438 6.10859375 6.875 5.75 C6.12089844 5.38648438 5.36679687 5.02296875 4.58984375 4.6484375 C2.73178414 3.75468731 0.86655182 2.87587625 -1 2 C-0.67 1.34 -0.34 0.68 0 0 Z " fill="#20201F" transform="translate(488,667)"/>
<path d="M0 0 C5.54955043 0.57610313 10.26029497 2.02098548 15.4375 4.0625 C16.16904297 4.34416016 16.90058594 4.62582031 17.65429688 4.91601562 C19.43873546 5.60413247 21.21973905 6.30114606 23 7 C22.67 7.66 22.34 8.32 22 9 C15.98922864 7.36959185 9.98336072 5.72852643 4 4 C3.34 5.32 2.68 6.64 2 8 C1.34 5.36 0.68 2.72 0 0 Z " fill="#292828" transform="translate(367,583)"/>
<path d="M0 0 C1.12451172 1.62011719 1.12451172 1.62011719 2 4 C1.30908203 6.84082031 1.30908203 6.84082031 0.0078125 10.078125 C-0.67861328 11.81835938 -0.67861328 11.81835938 -1.37890625 13.59375 C-1.87261719 14.8003125 -2.36632812 16.006875 -2.875 17.25 C-3.60396484 19.08304688 -3.60396484 19.08304688 -4.34765625 20.953125 C-5.55149167 23.97451586 -6.76933567 26.9894597 -8 30 C-8.99 29.34 -9.98 28.68 -11 28 C-10.34 28 -9.68 28 -9 28 C-8.87310791 27.28884033 -8.74621582 26.57768066 -8.61547852 25.8449707 C-7.98956499 22.95176548 -7.13476265 20.27178595 -6.15234375 17.48046875 C-5.61577148 15.9480957 -5.61577148 15.9480957 -5.06835938 14.38476562 C-4.69517578 13.32966797 -4.32199219 12.27457031 -3.9375 11.1875 C-3.56044922 10.11306641 -3.18339844 9.03863281 -2.79492188 7.93164062 C-1.86625342 5.28669882 -0.93451811 2.64287946 0 0 Z " fill="#333333" transform="translate(429,684)"/>
<path d="M0 0 C0.66 0 1.32 0 2 0 C1.32512263 4.81919471 -0.57965909 8.91883866 -2.5625 13.3125 C-2.89185547 14.05306641 -3.22121094 14.79363281 -3.56054688 15.55664062 C-4.36917123 17.37311562 -5.18397116 19.18683931 -6 21 C-6.99 20.34 -7.98 19.68 -9 19 C-7.69124677 16.01917332 -6.37737319 13.04063158 -5.0625 10.0625 C-4.68931641 9.21236328 -4.31613281 8.36222656 -3.93164062 7.48632812 C-3.57392578 6.67744141 -3.21621094 5.86855469 -2.84765625 5.03515625 C-2.51773682 4.2862915 -2.18781738 3.53742676 -1.84790039 2.76586914 C-1 1 -1 1 0 0 Z " fill="#141615" transform="translate(395,435)"/>
<path d="M0 0 C1.24452234 3.73356702 0.57603411 4.7361346 -0.87109375 8.32421875 C-1.28037109 9.35224609 -1.68964844 10.38027344 -2.11132812 11.43945312 C-2.54896484 12.51130859 -2.98660156 13.58316406 -3.4375 14.6875 C-4.0881543 16.31268555 -4.0881543 16.31268555 -4.75195312 17.97070312 C-5.82628416 20.65062779 -6.90924853 23.32672595 -8 26 C-8.66 25.34 -9.32 24.68 -10 24 C-8.85633882 20.70757455 -7.70970297 17.41619286 -6.5625 14.125 C-6.07426758 12.71927734 -6.07426758 12.71927734 -5.57617188 11.28515625 C-5.26357422 10.38925781 -4.95097656 9.49335937 -4.62890625 8.5703125 C-4.34088135 7.74289551 -4.05285645 6.91547852 -3.75610352 6.06298828 C-3 4 -3 4 -2 2 C-1.34 2 -0.68 2 0 2 C0 1.34 0 0.68 0 0 Z " fill="#B3B3B4" transform="translate(446,638)"/>
<path d="M0 0 C1.53861706 2.39771869 2.08246857 3.52728357 1.58447266 6.38183594 C1.2807373 7.24067383 0.97700195 8.09951172 0.6640625 8.984375 C0.34179688 9.91894531 0.01953125 10.85351562 -0.3125 11.81640625 C-0.663125 12.78449219 -1.01375 13.75257813 -1.375 14.75 C-1.71789062 15.73355469 -2.06078125 16.71710937 -2.4140625 17.73046875 C-3.26275874 20.15868298 -4.12507873 22.5811373 -5 25 C-7 22 -7 22 -6.6796875 19.94140625 C-6.41414063 19.15636719 -6.14859375 18.37132812 -5.875 17.5625 C-5.58753906 16.68980469 -5.30007813 15.81710937 -5.00390625 14.91796875 C-4.67261719 13.95503906 -4.34132813 12.99210938 -4 12 C-3.27081126 9.79167396 -2.54164444 7.58334067 -1.8125 5.375 C-1.20984178 3.58282538 -0.60622252 1.7909721 0 0 Z " fill="#2B2B2A" transform="translate(392,613)"/>
<path d="M0 0 C1.32 0.33 2.64 0.66 4 1 C3.34 1 2.68 1 2 1 C1.88398438 1.85980469 1.76796875 2.71960938 1.6484375 3.60546875 C0.98491126 7.07898865 -0.03233423 10.04534662 -1.375 13.3125 C-1.79523438 14.36050781 -2.21546875 15.40851562 -2.6484375 16.48828125 C-4 19 -4 19 -7 20 C-5.07443364 13.14381674 -2.7527517 6.56747868 0 0 Z " fill="#20211F" transform="translate(407,573)"/>
<path d="M0 0 C0.66 0 1.32 0 2 0 C1.55397709 6.69034366 -1.07345542 12.02812122 -4 18 C-4.66 17.67 -5.32 17.34 -6 17 C-5.34496718 12.94180817 -4.05440879 9.46028718 -2.4375 5.6875 C-1.75494141 4.08455078 -1.75494141 4.08455078 -1.05859375 2.44921875 C-0.53458984 1.23685547 -0.53458984 1.23685547 0 0 Z " fill="#E9E6EB" transform="translate(381,460)"/>
<path d="M0 0 C1.3749122 4.1247366 -0.13676223 6.77888115 -1.6875 10.625 C-1.94466797 11.31851563 -2.20183594 12.01203125 -2.46679688 12.7265625 C-3.26171875 14.7265625 -3.26171875 14.7265625 -5 18 C-7.09765625 18.86328125 -7.09765625 18.86328125 -9 19 C-10.73026102 20.47890069 -10.73026102 20.47890069 -12 22 C-11.58337437 18.3892445 -9.81770633 16.63453112 -7.4765625 13.9921875 C-4.32378216 9.73843625 -2.24823555 4.77460333 0 0 Z " fill="#1F1F1F" transform="translate(533,712)"/>
<path d="M0 0 C1.59478097 2.44739733 2.08915218 3.53927363 1.52441406 6.45776367 C1.19151367 7.35213135 0.85861328 8.24649902 0.515625 9.16796875 C0.15726562 10.14314453 -0.20109375 11.11832031 -0.5703125 12.12304688 C-0.95960938 13.13431641 -1.34890625 14.14558594 -1.75 15.1875 C-2.12382812 16.21037109 -2.49765625 17.23324219 -2.8828125 18.28710938 C-5.71630102 25.85815051 -5.71630102 25.85815051 -8 27 C-6.68764148 20.63569826 -4.98780585 14.57878972 -2.875 8.4375 C-2.59785156 7.61958984 -2.32070313 6.80167969 -2.03515625 5.95898438 C-1.36094863 3.97123432 -0.68107796 1.98540651 0 0 Z " fill="#D9D6DE" transform="translate(367,496)"/>
<path d="M0 0 C1.13602231 4.24679684 1.04491564 7.72038901 0 12 C-1.4375 14 -1.4375 14 -3 15 C-3.66 15 -4.32 15 -5 15 C-5.66 16.98 -6.32 18.96 -7 21 C-8.17189558 17.48431326 -7.83725505 17.0008148 -6.34765625 13.76953125 C-5.98349609 12.96708984 -5.61933594 12.16464844 -5.24414062 11.33789062 C-4.65922852 10.08782227 -4.65922852 10.08782227 -4.0625 8.8125 C-3.67642578 7.96751953 -3.29035156 7.12253906 -2.89257812 6.25195312 C-1.93699299 4.16382265 -0.97256217 2.08026396 0 0 Z " fill="#A6A6A4" transform="translate(339,408)"/>
<path d="M0 0 C0.99 0.33 1.98 0.66 3 1 C-0.3 8.26 -3.6 15.52 -7 23 C-8.1916143 19.42515711 -7.74788456 18.71412118 -6.34765625 15.33203125 C-5.98349609 14.43935547 -5.61933594 13.54667969 -5.24414062 12.62695312 C-4.85419922 11.69818359 -4.46425781 10.76941406 -4.0625 9.8125 C-3.67642578 8.87212891 -3.29035156 7.93175781 -2.89257812 6.96289062 C-1.93678351 4.63830372 -0.97232993 2.31770801 0 0 Z " fill="#DBD9DE" transform="translate(375,490)"/>
<path d="M0 0 C0.66 0 1.32 0 2 0 C1.35083537 6.00477279 -0.85795003 11.400781 -3 17 C-3.33 16.34 -3.66 15.68 -4 15 C-4.66 15 -5.32 15 -6 15 C-4.40109514 9.80355921 -2.25861997 4.93387858 0 0 Z " fill="#151615" transform="translate(435,358)"/>
<path d="M0 0 C0.66 0 1.32 0 2 0 C1.39644592 3.85025879 0.23227397 6.86101159 -1.5625 10.3125 C-2.01753906 11.19550781 -2.47257812 12.07851563 -2.94140625 12.98828125 C-3.29074219 13.65214844 -3.64007813 14.31601562 -4 15 C-4.66 15 -5.32 15 -6 15 C-5.39644592 11.14974121 -4.23227397 8.13898841 -2.4375 4.6875 C-1.98246094 3.80449219 -1.52742188 2.92148437 -1.05859375 2.01171875 C-0.53458984 1.01591797 -0.53458984 1.01591797 0 0 Z " fill="#E4E1E7" transform="translate(390,440)"/>
<path d="M0 0 C1.32 0 2.64 0 4 0 C5.38793945 1.43701172 5.38793945 1.43701172 6.61328125 3.4296875 C7.05607422 4.14253906 7.49886719 4.85539062 7.95507812 5.58984375 C8.40302734 6.34394531 8.85097656 7.09804688 9.3125 7.875 C9.77978516 8.62136719 10.24707031 9.36773437 10.72851562 10.13671875 C13.23056337 14.23904224 13.23056337 14.23904224 14 16 C13.67 16.66 13.34 17.32 13 18 C11.58126158 16.12653773 10.16498375 14.25129507 8.75 12.375 C7.56664062 10.80878906 7.56664062 10.80878906 6.359375 9.2109375 C4.13996419 6.19048106 2.05205484 3.13456083 0 0 Z " fill="#D1D2D3" transform="translate(712,373)"/>
<path d="M0 0 C0.99 0.99 1.98 1.98 3 3 C1.35 6.3 -0.3 9.6 -2 13 C-2.66 13 -3.32 13 -4 13 C-3.40895235 8.15340923 -2.02055843 4.39251833 0 0 Z " fill="#191919" transform="translate(416,610)"/>
<path d="M0 0 C0.99 0.33 1.98 0.66 3 1 C1.25192871 6.46737191 -0.65794081 11.75824848 -3 17 C-4.56393356 13.02623171 -3.36145292 10.18622097 -2.0625 6.25 C-1.68222656 5.07953125 -1.30195313 3.9090625 -0.91015625 2.703125 C-0.60980469 1.81109375 -0.30945313 0.9190625 0 0 Z " fill="#1F1F1D" transform="translate(397,598)"/>
<path d="M0 0 C0.99 0.66 1.98 1.32 3 2 C1.35 5.63 -0.3 9.26 -2 13 C-2.99 12.34 -3.98 11.68 -5 11 C-4.35731563 9.35293447 -3.71076198 7.70737825 -3.0625 6.0625 C-2.70285156 5.14597656 -2.34320313 4.22945313 -1.97265625 3.28515625 C-1 1 -1 1 0 0 Z " fill="#E5E5E7" transform="translate(408,411)"/>
<path d="M0 0 C0.99 0 1.98 0 3 0 C1.35433477 5.68502535 -1.29032784 10.76681636 -4 16 C-5.35304209 11.94087374 -4.15216503 10.22850409 -2.5625 6.3125 C-2.08941406 5.13300781 -1.61632812 3.95351563 -1.12890625 2.73828125 C-0.75636719 1.83464844 -0.38382812 0.93101562 0 0 Z " fill="#2D2D2C" transform="translate(406,635)"/>
<path d="M0 0 C0.66 0 1.32 0 2 0 C0.7874262 3.72433382 -0.50859979 7.37802806 -2 11 C-4.475 10.01 -4.475 10.01 -7 9 C-6.57847656 8.51789063 -6.15695312 8.03578125 -5.72265625 7.5390625 C-5.17480469 6.90742188 -4.62695312 6.27578125 -4.0625 5.625 C-3.51722656 4.99851562 -2.97195313 4.37203125 -2.41015625 3.7265625 C-0.93041376 2.04367666 -0.93041376 2.04367666 0 0 Z " fill="#D8D7D9" transform="translate(353,343)"/>
<path d="M0 0 C0.99 0.66 1.98 1.32 3 2 C2.55037804 3.96035175 2.09001752 5.91824309 1.625 7.875 C1.36976563 8.96554687 1.11453125 10.05609375 0.8515625 11.1796875 C0 14 0 14 -2 16 C-1.34 13.03 -0.68 10.06 0 7 C-0.66 7 -1.32 7 -2 7 C-1.34 4.69 -0.68 2.38 0 0 Z " fill="#78777A" transform="translate(365,508)"/>
<path d="M0 0 C1.11346788 2.80033839 1.03510273 3.90143703 0.00390625 6.796875 C-0.47175781 7.77140625 -0.94742187 8.7459375 -1.4375 9.75 C-1.91058594 10.73484375 -2.38367188 11.7196875 -2.87109375 12.734375 C-3.24363281 13.48203125 -3.61617188 14.2296875 -4 15 C-4.99 14.67 -5.98 14.34 -7 14 C-5.25 9.125 -5.25 9.125 -3 8 C-2.09656316 6.11736119 -2.09656316 6.11736119 -1.375 3.9375 C-0.98441406 2.83728516 -0.98441406 2.83728516 -0.5859375 1.71484375 C-0.39257812 1.14894531 -0.19921875 0.58304688 0 0 Z " fill="#828185" transform="translate(362,524)"/>
<path d="M0 0 C0.33 0 0.66 0 1 0 C1.27771418 4.67948398 0.54837397 7.67583336 -1.5 11.875 C-1.9640625 12.84179688 -2.428125 13.80859375 -2.90625 14.8046875 C-3.2671875 15.52914062 -3.628125 16.25359375 -4 17 C-5.6852084 12.92320841 -4.16939007 10.16924407 -2.5625 6.25 C-2.08941406 5.07953125 -1.61632812 3.9090625 -1.12890625 2.703125 C-0.75636719 1.81109375 -0.38382812 0.9190625 0 0 Z " fill="#2A2A29" transform="translate(368,588)"/>
<path d="M0 0 C6.75 -0.125 6.75 -0.125 9 1 C8.1875 4.4375 8.1875 4.4375 7 8 C6.01 8.33 5.02 8.66 4 9 C4.875 3.25 4.875 3.25 6 1 C4.02 1 2.04 1 0 1 C0 0.67 0 0.34 0 0 Z " fill="#212120" transform="translate(578,679)"/>
<path d="M0 0 C0.66 0 1.32 0 2 0 C6 5.41176471 6 5.41176471 6 8 C3.0625 7.25 3.0625 7.25 0 6 C-0.9375 4 -0.9375 4 -1 2 C-0.67 1.34 -0.34 0.68 0 0 Z " fill="#D4D5D7" transform="translate(423,599)"/>
<path d="M0 0 C0.33 0.99 0.66 1.98 1 3 C1.66 3 2.32 3 3 3 C2.51421457 6.12290635 2.0013988 8.99580359 1 12 C0.34 12 -0.32 12 -1 12 C-0.67 10.35 -0.34 8.7 0 7 C-0.66 6.67 -1.32 6.34 -2 6 C-1.34 4.02 -0.68 2.04 0 0 Z " fill="#939394" transform="translate(421,366)"/>
<path d="M0 0 C0.66 0 1.32 0 2 0 C2 2.64 2 5.28 2 8 C0.68 7.67 -0.64 7.34 -2 7 C-1.125 1.125 -1.125 1.125 0 0 Z " fill="#161617" transform="translate(397,660)"/>
<path d="M0 0 C0.33 0 0.66 0 1 0 C0.125 7.625 0.125 7.625 -1 11 C-1.99 11 -2.98 11 -4 11 C-3.5247412 9.35303396 -3.04468109 7.70745272 -2.5625 6.0625 C-2.29566406 5.14597656 -2.02882813 4.22945312 -1.75390625 3.28515625 C-1 1 -1 1 0 0 Z " fill="#232422" transform="translate(385,635)"/>
<path d="M0 0 C0.33 0 0.66 0 1 0 C0.58846263 4.97093824 0.20399168 9.44508386 -2 14 C-3.1171875 12.328125 -3.1171875 12.328125 -4 10 C-3.3203125 7.421875 -3.3203125 7.421875 -2.125 4.75 C-1.73570312 3.85796875 -1.34640625 2.9659375 -0.9453125 2.046875 C-0.63335937 1.37140625 -0.32140625 0.6959375 0 0 Z " fill="#2A2B2A" transform="translate(440,346)"/>
<path d="M0 0 C3.68266103 0.59950296 7.34543185 1.24758891 11 2 C10.01 2.99 9.02 3.98 8 5 C2.25 3.375 2.25 3.375 0 0 Z " fill="#292928" transform="translate(363,450)"/>
<path d="M0 0 C0.66 0 1.32 0 2 0 C1.44271087 3.34373475 0.64826111 6.03312999 -1 9 C-1.66 9 -2.32 9 -3 9 C-2.5020163 5.26512223 -2.12508244 3.18762365 0 0 Z " fill="#131513" transform="translate(373,489)"/>
<path d="M0 0 C4.2742558 1.5830577 6.26531794 4.50568404 9 8 C6 8 6 8 4.39453125 6.7578125 C3.87246094 6.21898437 3.35039063 5.68015625 2.8125 5.125 C2.28269531 4.59132813 1.75289062 4.05765625 1.20703125 3.5078125 C0 2 0 2 0 0 Z " fill="#D6D7D6" transform="translate(697,357)"/>
<path d="M0 0 C1.65 0 3.3 0 5 0 C5 4.26826873 4.62386487 4.93882432 2 8 C1.34 5.36 0.68 2.72 0 0 Z " fill="#101010" transform="translate(367,583)"/>
<path d="M0 0 C0.99 0.33 1.98 0.66 3 1 C1.68 4.3 0.36 7.6 -1 11 C-1.33 11 -1.66 11 -2 11 C-1.125 3.375 -1.125 3.375 0 0 Z " fill="#E3E0E7" transform="translate(370,488)"/>
<path d="M0 0 C0.66 0 1.32 0 2 0 C2 1.98 2 3.96 2 6 C0.35 6.66 -1.3 7.32 -3 8 C-2.45276317 4.62537285 -1.9451 2.91765 0 0 Z " fill="#EAE9ED" transform="translate(419,373)"/>
<path d="M0 0 C1.32 0.66 2.64 1.32 4 2 C2.02 4.64 0.04 7.28 -2 10 C-3 8 -3 8 -2.44140625 6.0546875 C-2.15136719 5.33539063 -1.86132812 4.61609375 -1.5625 3.875 C-1.27503906 3.15054687 -0.98757813 2.42609375 -0.69140625 1.6796875 C-0.46324219 1.12539063 -0.23507812 0.57109375 0 0 Z " fill="#CFCFD3" transform="translate(433,369)"/>
<path d="M0 0 C0.66 0 1.32 0 2 0 C1.67 2.97 1.34 5.94 1 9 C0.01 8.67 -0.98 8.34 -2 8 C-1.47731534 5.23723823 -0.89130413 2.6739124 0 0 Z " fill="#D6D6D8" transform="translate(393,465)"/>
<path d="M0 0 C5.875 2.75 5.875 2.75 7 5 C3.37 4.34 -0.26 3.68 -4 3 C-2.68 2.01 -1.36 1.02 0 0 Z " fill="#222222" transform="translate(347,445)"/>
<path d="M0 0 C0.66 0 1.32 0 2 0 C1.5020163 3.73487777 1.12508244 5.81237635 -1 9 C-1.66 8.34 -2.32 7.68 -3 7 C-2.01 4.69 -1.02 2.38 0 0 Z " fill="#2A2D29" transform="translate(408,403)"/>
<path d="M0 0 C4.7517398 0.43197635 6.92000054 1.32769295 10 5 C5.75354935 5 3.61475228 3.18249194 0 1 C0 0.67 0 0.34 0 0 Z " fill="#171615" transform="translate(389,591)"/>
<path d="M0 0 C0.66 0 1.32 0 2 0 C1.5020163 3.73487777 1.12508244 5.81237635 -1 9 C-1.66 9 -2.32 9 -3 9 C-2.01 6.03 -1.02 3.06 0 0 Z " fill="#1E1E1D" transform="translate(435,358)"/>
<path d="M0 0 C0.66 0.33 1.32 0.66 2 1 C1.67 3.31 1.34 5.62 1 8 C0.01 7.34 -0.98 6.68 -2 6 C-1.34 4.02 -0.68 2.04 0 0 Z " fill="#101111" transform="translate(568,723)"/>
<path d="M0 0 C0.66 0.33 1.32 0.66 2 1 C1.34 3.97 0.68 6.94 0 10 C-0.66 9.01 -1.32 8.02 -2 7 C-1.125 3.3125 -1.125 3.3125 0 0 Z " fill="#3E3E3C" transform="translate(387,628)"/>
<path d="M0 0 C2.31 0.66 4.62 1.32 7 2 C7 2.99 7 3.98 7 5 C4.36 4.34 1.72 3.68 -1 3 C-0.67 2.01 -0.34 1.02 0 0 Z " fill="#20201F" transform="translate(422,604)"/>
<path d="M0 0 C1.39195915 4.17587745 -0.17676781 6.13474776 -2 10 C-2.33 9.34 -2.66 8.68 -3 8 C-3.66 8 -4.32 8 -5 8 C-5 7.34 -5 6.68 -5 6 C-4.01 6 -3.02 6 -2 6 C-1.34 4.02 -0.68 2.04 0 0 Z " fill="#191918" transform="translate(361,578)"/>
<path d="M0 0 C0.66 0.99 1.32 1.98 2 3 C1.125 5.6875 1.125 5.6875 0 8 C-2.31 7.67 -4.62 7.34 -7 7 C-7 6.67 -7 6.34 -7 6 C-6.21625 5.938125 -5.4325 5.87625 -4.625 5.8125 C-3.75875 5.544375 -2.8925 5.27625 -2 5 C-0.62533375 2.52363988 -0.62533375 2.52363988 0 0 Z " fill="#414241" transform="translate(373,576)"/>
<path d="M0 0 C0.75 1.625 0.75 1.625 1 4 C-0.9375 7.25 -0.9375 7.25 -3 10 C-4 7 -4 7 -3.22265625 5.17578125 C-2.1484375 3.45052083 -1.07421875 1.72526042 0 0 Z " fill="#30322F" transform="translate(311,497)"/>
<path d="M0 0 C0.99 0.99 1.98 1.98 3 3 C2.34 4.65 1.68 6.3 1 8 C0.01 7.67 -0.98 7.34 -2 7 C-1.34 4.69 -0.68 2.38 0 0 Z " fill="#1E1F1E" transform="translate(397,428)"/>
<path d="M0 0 C0.99 0.33 1.98 0.66 3 1 C2.34 2.98 1.68 4.96 1 7 C0.34 7 -0.32 7 -1 7 C-0.67 4.69 -0.34 2.38 0 0 Z " fill="#DBDADD" transform="translate(373,674)"/>
<path d="M0 0 C0.66 0 1.32 0 2 0 C1.67 1.98 1.34 3.96 1 6 C0.01 6.33 -0.98 6.66 -2 7 C-1.125 1.125 -1.125 1.125 0 0 Z " fill="#0F100F" transform="translate(376,660)"/>
<path d="M0 0 C0.66 0.99 1.32 1.98 2 3 C0.625 6.6875 0.625 6.6875 -1 10 C-1.66 9.34 -2.32 8.68 -3 8 C-2.01 5.36 -1.02 2.72 0 0 Z " fill="#A7A7A7" transform="translate(439,654)"/>
<path d="M0 0 C1.32 1.65 2.64 3.3 4 5 C3.34 6.32 2.68 7.64 2 9 C0.4375 7.875 0.4375 7.875 -1 6 C-0.6875 2.8125 -0.6875 2.8125 0 0 Z " fill="#2E2E2C" transform="translate(446,634)"/>
<path d="M0 0 C1.98 0.66 3.96 1.32 6 2 C5.67 2.99 5.34 3.98 5 5 C2.69 4.34 0.38 3.68 -2 3 C-1.34 2.67 -0.68 2.34 0 2 C0 1.34 0 0.68 0 0 Z " fill="#302F2E" transform="translate(413,600)"/>
<path d="M0 0 C1 3 1 3 -0.4375 6.1875 C-1.2109375 7.5796875 -1.2109375 7.5796875 -2 9 C-2.66 9 -3.32 9 -4 9 C-2.80100302 5.9168649 -1.52299523 2.93720508 0 0 Z " fill="#2D2D2B" transform="translate(533,712)"/>
<path d="M0 0 C0.66 0.33 1.32 0.66 2 1 C1.34 2.98 0.68 4.96 0 7 C-0.66 7 -1.32 7 -2 7 C-1.125 1.125 -1.125 1.125 0 0 Z " fill="#E8E6EA" transform="translate(376,668)"/>
<path d="M0 0 C0.33 0.99 0.66 1.98 1 3 C0.67 3.66 0.34 4.32 0 5 C-2.5625 5.625 -2.5625 5.625 -5 6 C-5.33 5.34 -5.66 4.68 -6 4 C-4.02 2.68 -2.04 1.36 0 0 Z " fill="#DCDDDF" transform="translate(678,646)"/>
<path d="M0 0 C0.99 0.33 1.98 0.66 3 1 C1.515 4.465 1.515 4.465 0 8 C-1.125 6.25 -1.125 6.25 -2 4 C-1.125 1.75 -1.125 1.75 0 0 Z " fill="#D4D2D8" transform="translate(375,490)"/>
<path d="M0 0 C0.66 0 1.32 0 2 0 C1.25 4.75 1.25 4.75 -1 7 C-1.625 4.625 -1.625 4.625 -2 2 C-1.34 1.34 -0.68 0.68 0 0 Z " fill="#1A1B1B" transform="translate(460,297)"/>
</svg>
